<?xml version="1.0" encoding="utf-8"?>
<!-- Generator: Adobe Illustrator 18.1.1, SVG Export Plug-In . SVG Version: 6.00 Build 0)  -->
<svg version="1.1" id="Layer_1" xmlns="http://www.w3.org/2000/svg" xmlns:xlink="http://www.w3.org/1999/xlink" x="0px" y="0px"
	 viewBox="0 0 518 541.8" enable-background="new 0 0 518 541.8" xml:space="preserve">
<g>
	<g>
		<g>
			<path fill="#414042" stroke="#000000" stroke-width="0.6176" stroke-miterlimit="10" d="M211.9,224.9c-1.4-0.1-3.2-0.1-5.3,0.1
				c0.1,0.3,0.1,0.6,0.2,1c2.1-0.4,3.8-0.6,5.2-0.8C211.9,225.1,211.9,225,211.9,224.9z"/>
			<path fill="#414042" stroke="#000000" stroke-width="0.6176" stroke-miterlimit="10" d="M227.3,226.8L227.3,226.8
				c-0.4-0.1-0.8-0.2-1.1-0.2c-0.4-0.1-0.8-0.2-1.2-0.3c0-0.2,0-0.3,0-0.5c0.4,0.1,0.9,0.1,1.4,0.2c0.3,0,0.6,0.1,0.9,0.1
				C227.2,226.3,227.3,226.5,227.3,226.8z"/>
			<path fill="#414042" stroke="#000000" stroke-width="0.6176" stroke-miterlimit="10" d="M259.3,241.6l-5.5,4.6
				c-1.1-1.8-2.3-3.5-3.6-5c-3.3-3.9-6.9-6.7-10.3-8.9c-0.1-1.2-0.3-2.4-0.4-3.5c1.9,0.6,4,1.3,6.1,2.3c2.6,1.2,5.3,2.7,8.1,4.9
				C255.5,237.5,257.5,239.3,259.3,241.6z"/>
			<path fill="#414042" stroke="#000000" stroke-width="0.6176" stroke-miterlimit="10" d="M268,267.7c0,2-0.2,3.4-0.4,5.1
				c-0.2,1.6-0.5,3.2-0.9,4.8c-1.5,6.2-4.2,11.7-7.2,16.2c-6.2,9.2-13.9,15.7-22.2,19.8c-4.1,2.1-8.5,3.5-12.8,4.5
				c-2.2,0.4-4.4,0.7-6.6,0.9c-1.1,0.1-2.2,0.2-3.3,0.2l-1,0l-0.7,0l-1.4,0l-3.5-0.2c-1.1-0.1-2.2-0.2-3.3-0.4
				c-2.2-0.4-4.4-0.9-6.5-1.5c-2.2-0.6-4.3-1.4-6.4-2.4c-2.1-0.9-4.2-2-6.2-3.2c-4.1-2.5-8-5.5-11.6-9.3c-3.6-3.7-6.9-8.2-9.6-13.4
				c-2.7-5.3-4.6-11.7-5-18.3c-0.1-1.7-0.1-3.3,0-4.9l0-0.1c0-0.5,0-0.6,0-0.6l0-0.2l0.1-0.4l0.1-0.8l0.4-2.5
				c0.6-3.4,1.5-5.9,2.5-8.5c4.3-9.7,10.3-14.8,15.8-18.4c5.5-3.5,10.7-5.7,15.4-6.9c0.5-0.1,0.9-0.2,1.4-0.3c0,0.3,0.1,0.6,0.1,0.8
				l0.1,1c0,0.3,0.1,0.7,0.1,1c-4.5,2.1-9.4,5.2-14.3,9.7c-4.4,4.2-8.9,9.9-11.3,17.2c-1.2,3.7-1.7,7.7-1.1,11.8
				c0.5,4,2,7.9,4.1,11.2c4.3,6.7,10.6,11.4,17.4,14.4c6.8,3,14.1,4.5,21.4,4.6c7.4,0.1,14.7-0.9,21.6-3.5
				c6.9-2.6,13.4-6.7,18.4-12.6c2.5-2.9,4.5-6.4,5.8-10.2c0.6-1.9,1-3.9,1.2-5.8c0.2-2,0.2-4,0-6c-0.1-1.3-0.3-2.5-0.6-3.8
				c2.6-1.2,5.1-2.4,7.7-3.5c0.6,1.7,1.1,3.6,1.5,5.5C267.7,261.6,268,264.6,268,267.7z"/>
		</g>
		<path fill="#414042" d="M181.5,314.4c0,0,1,0.5,2.6,1.3c1.7,0.8,4.1,1.8,7.1,2.8c1.5,0.5,3.1,1,4.8,1.4c1.7,0.4,3.5,0.8,5.4,1.1
			c1.9,0.3,3.8,0.6,5.8,0.8c1,0.1,2,0.1,3,0.2c1,0,2,0,3,0c2.1,0,4.1-0.1,6.1-0.3c2-0.2,4-0.4,5.8-0.8c1.9-0.3,3.7-0.7,5.4-1.2
			c1.7-0.4,3.3-0.9,4.8-1.4c3-1,5.4-2,7.1-2.8c1.7-0.8,2.6-1.3,2.6-1.3s-0.9,0.6-2.5,1.6c-1.6,1-4,2.3-7,3.5
			c-1.5,0.6-3.1,1.2-4.8,1.8c-1.7,0.5-3.6,1.1-5.5,1.5c-1.9,0.4-3.9,0.8-5.9,1c-2,0.2-4.1,0.3-6.1,0.4c-1.1,0-2.1-0.1-3.1-0.1
			c-1-0.1-2.1-0.2-3.1-0.2c-2-0.2-4-0.5-5.9-0.9c-1.9-0.4-3.7-0.9-5.5-1.5c-1.7-0.5-3.3-1.2-4.8-1.8c-2.9-1.2-5.3-2.6-6.9-3.5
			C182.4,315,181.5,314.4,181.5,314.4z"/>
		<g>
			<path fill="#414042" stroke="#000000" stroke-width="0.6176" stroke-miterlimit="10" d="M274.6,240.5c0,2.6-1.3,5.2-3.3,7
				c-1.8,1.6-3.8,2.4-6,3.3l-0.4,0.2l0,0c-2.5,1-5,2.1-7.4,3.3c-6.6,3.1-13,6.8-19.2,11l-1.8,1l-0.9-1.7l19.5-16.2l5.8-4.8l7.8-6.5
				c0.9-0.7,1.9-1.6,2.8-1.6c0.6,0,1.1,0.3,1.5,0.6C273.9,237,274.6,238.8,274.6,240.5z"/>
		</g>
		<path fill="#414042" stroke="#000000" stroke-width="0.6176" stroke-miterlimit="10" d="M228.9,267c0,0,0.3,0.3,0.7,0.8
			c0.4,0.5,1.1,1.2,2,1.9c0.9,0.7,1.9,1.3,3.1,1.8c1.2,0.4,2.5,0.7,3.8,0.6c1.3-0.1,2.6-0.4,3.8-1c1.2-0.6,2.2-1.3,3.1-2
			c0.8-0.8,1.5-1.5,1.9-2c0.4-0.6,0.7-0.9,0.7-0.9s-0.2,0.4-0.5,1.1c-0.4,0.7-0.9,1.6-1.7,2.5c-0.8,0.9-1.9,1.9-3.1,2.6
			c-1.2,0.7-2.7,1.1-4.1,1.2c-1.5,0-2.9-0.3-4.2-0.9c-1.3-0.6-2.4-1.4-3.2-2.3c-0.8-0.9-1.4-1.7-1.8-2.4
			C229.1,267.4,228.9,267,228.9,267z"/>
		<g>
			<path fill="#414042" stroke="#000000" stroke-width="0.6176" stroke-miterlimit="10" d="M80,299c2.6,2.9,7.2,5.2,13.7,6.9
				c6.5,1.7,13.1,2.5,19.8,2.4c6.7-0.1,11.9-1.1,15.4-3.1c4-1.7,6.6-4.6,7.7-8.8c0.3-3.8-2.5-7.4-8.5-10.7c-2.3-1.2-5.5-2.6-9.7-4.4
				c-4.2-1.7-8.2-3.2-12.1-4.6c-3.8-1.3-7.9-3.1-12.1-5.2c-4.3-2.1-7.9-4.3-11-6.6c-3.1-2.2-5.6-5-7.7-8.3c-2-3.3-3-6.8-3-10.7
				c0-3.5,1-6.6,2.9-9.3c1.9-2.6,4.2-4.7,6.9-6.1c2.7-1.4,6-2.6,9.8-3.5c3.8-0.9,7.2-1.5,10.3-1.7c3.1-0.3,6.3-0.4,9.6-0.4
				c2.1,0,4.2,0.1,6.2,0.3c2,0.2,4.2,0.5,6.6,1c2.4,0.5,4.5,1.1,6.5,1.7c2,0.7,3.9,1.6,5.9,2.7c1.9,1.1,3.5,2.4,4.8,3.8
				c1.3,1.4,2.3,3.1,3,5.1c0.7,2,1,4.2,0.9,6.7c-0.1,2.1-0.8,3.9-1.9,5.4c-1.2,1.5-2.6,2.4-4.3,2.8c-1.7,0.4-3.3,0.3-5,0
				c-1.6-0.4-3-1.3-4.1-2.8c-1.1-1.5-1.6-3.3-1.5-5.5c0.3-7.9-5.4-11.9-17.1-11.8c-1.1,0-2.3,0-3.5,0.1c-1.2,0.1-2.7,0.3-4.4,0.5
				c-1.7,0.3-3.2,0.6-4.5,1.1c-1.3,0.4-2.5,1.1-3.6,2c-1.1,0.9-1.7,1.8-1.9,2.9c-0.4,1.5,0,3,1.1,4.5c1.1,1.6,2.5,2.9,4.2,4.1
				c1.7,1.2,3.7,2.4,6,3.5c2.3,1.2,4.3,2.1,5.9,2.7c1.6,0.6,3,1.2,4.3,1.7c4.6,1.7,8.3,3,10.9,4c2.6,1,6.1,2.6,10.3,4.8
				c4.2,2.2,7.5,4.4,9.7,6.7c2.3,2.2,4.3,5.2,6.1,8.8c1.8,3.6,2.7,7.5,2.7,11.7c0,3.5-0.7,6.7-2,9.5c-1.3,2.8-3.2,5-5.6,6.8
				c-2.4,1.8-5,3.2-7.8,4.5c-2.8,1.2-5.9,2.1-9.4,2.7c-3.5,0.6-6.7,1-9.6,1.2c-2.9,0.2-6,0.3-9.1,0.3c-3.5,0-7.1-0.3-10.7-0.7
				c-3.6-0.5-7.4-1.3-11.5-2.5c-4-1.2-7.6-2.7-10.7-4.5c-3.1-1.8-5.6-4.2-7.7-7.3c-2-3.1-3-6.6-3-10.4c0.2-2.7,0.9-5.3,2.1-7.7
				c1.2-2.4,2.8-4.5,4.7-6.3c2-1.8,4.2-3.3,6.8-4.3c5.8-2.3,10.4-1.6,13.6,2.1c2.4,2.8,3.1,6,1.9,9.4c-1.5,4.2-5.1,6.1-11,5.8
				c-0.4,0-0.7,0-1.1-0.1c-2.8-0.2-4.8,0.4-6.1,1.7C77.6,294.9,78,296.7,80,299z"/>
		</g>
		<g>
			<path fill="#414042" stroke="#000000" stroke-width="0.6176" stroke-miterlimit="10" d="M361.7,293.7c-0.1,7.5-2.9,13.8-8.2,19.1
				c-5.3,5.3-11.7,7.9-19.3,7.9l-19-0.1c-7.6,0-14-2.7-19.2-8.1c-5.2-5.4-7.9-11.8-7.9-19.2l0.3-45.9c0-1.6-0.3-3-1-4.1
				s-1.4-1.9-2.3-2.5c-0.9-0.6-1.7-1.3-2.4-2.3c-0.7-1-1.1-2.2-1.1-3.6c0-1.2,0.4-2.2,1.2-3.2c0.8-1,1.9-1.7,3.2-2.4
				c1.4-0.6,2.9-1.1,4.7-1.5c1.7-0.4,3.6-0.6,5.5-0.7c2-0.1,3.9-0.1,5.9,0c2,0.1,3.8,0.4,5.5,0.8c1.7,0.4,3.3,1,4.6,1.6
				c1.4,0.6,2.4,1.4,3.2,2.4c0.8,1,1.1,2,1.1,3.2c0,1.4-0.4,2.5-1.1,3.5c-0.7,1-1.5,1.8-2.4,2.3c-0.9,0.5-1.6,1.4-2.3,2.4
				c-0.7,1.1-1,2.5-1,4.1l-0.3,48.2c0,3.2,0.7,6,2.2,8.4c1.5,2.4,3.4,4.2,5.7,5.3c2.3,1.1,4.8,1.7,7.5,1.7c2.7,0,5.2-0.5,7.5-1.6
				c2.3-1.1,4.2-2.8,5.8-5.2c1.5-2.4,2.3-5.2,2.3-8.4l0.3-48.2c0-1.6-0.3-3-1-4.1c-0.7-1.1-1.4-1.9-2.3-2.5
				c-0.9-0.6-1.7-1.3-2.4-2.3c-0.7-1-1.1-2.2-1.1-3.6c0-1.2,0.4-2.2,1.2-3.2c0.8-1,1.9-1.7,3.2-2.4c1.4-0.6,2.9-1.1,4.7-1.5
				c1.7-0.4,3.6-0.6,5.5-0.7c2-0.1,3.9-0.1,5.9,0c2,0.1,3.8,0.4,5.5,0.8c1.7,0.4,3.3,1,4.6,1.6c1.4,0.6,2.4,1.4,3.2,2.4
				c0.8,1,1.1,2,1.1,3.2c0,1.4-0.4,2.5-1.1,3.5c-0.7,1-1.5,1.8-2.4,2.3c-0.9,0.5-1.6,1.4-2.3,2.4c-0.7,1.1-1,2.5-1,4.1L361.7,293.7z
				"/>
			<path fill="#414042" stroke="#000000" stroke-width="0.6176" stroke-miterlimit="10" d="M402.4,248.1l-0.3,52.7
				c0,1.5,0.3,2.9,1,4c0.7,1.1,1.4,2,2.3,2.5c0.9,0.5,1.7,1.3,2.4,2.3c0.7,1,1.1,2.2,1.1,3.7c0,2-1.2,3.7-3.6,5
				c-2.4,1.3-5.3,2.2-8.8,2.5c-3.5,0.3-6.9,0.3-10.3-0.1c-3.4-0.3-6.3-1.2-8.7-2.6c-2.4-1.4-3.6-3.1-3.6-5.1c0-1,0.2-1.9,0.6-2.7
				c0.4-0.8,0.8-1.4,1.3-1.8c0.5-0.5,1.1-0.9,1.6-1.4c0.6-0.5,1.1-1,1.6-1.5c0.5-0.5,0.9-1.2,1.2-2c0.3-0.9,0.5-1.8,0.5-2.9
				l0.3-52.7c0-1.6-0.3-3-1-4.1s-1.4-1.9-2.3-2.5c-0.9-0.6-1.7-1.3-2.4-2.3c-0.7-1-1.1-2.2-1.1-3.6c0-2.5,1.6-4.4,4.9-5.8
				c3.2-1.4,7.1-2.1,11.7-2.1l39.3,0.2c3.7,0,7.3,0.5,10.6,1.4c3.3,0.9,6.2,2,8.6,3.5c2.4,1.4,4.6,3.1,6.3,5.2
				c1.8,2,3.1,4.1,4.1,6.4c0.9,2.2,1.5,4.6,1.6,7.1c0.1,2.5-0.2,5-0.9,7.4c-0.7,2.4-1.9,4.8-3.5,7.1c-1.6,2.3-3.6,4.5-6.1,6.4
				c-3.1,2.3-8.8,5-17.1,8.1c-8.3,3-15,5.1-20.2,6.2c-1.6,0.4-3.1,0.3-4.2,0c-1.2-0.4-2-0.9-2.4-1.7c-0.4-0.8-0.6-1.6-0.5-2.5
				c0.1-0.9,0.5-1.8,1.2-2.7c0.7-0.9,1.7-1.5,2.9-1.8c5.7-1.9,11.3-4.2,16.6-7c3.4-2.1,6.1-4.4,8.3-6.8c2.2-2.5,3.6-4.9,4.5-7.3
				c0.8-2.4,1-4.8,0.4-7.1c-0.6-2.3-1.7-4.4-3.5-6.1c-1.8-1.7-4.3-3.1-7.5-4.2c-3.3-1.1-7.1-1.6-11.5-1.6c-5.2,0-9.1,0.9-11.6,2.8
				C403.7,242.1,402.4,244.7,402.4,248.1z"/>
		</g>
		<g>
			<path fill="#414042" stroke="#000000" stroke-width="0.6176" stroke-miterlimit="10" d="M201.8,205c-0.3,1.4-0.3,2.9-0.2,4.6
				c0,0.9,0.1,1.7,0.3,2.7c0.1,0.9,0.3,1.8,0.4,2.7c0.5,3.2,1.2,6.6,1.8,10.2c0.1,0.4,0.1,0.9,0.2,1.3c0,0.2,0.1,0.5,0.1,0.7
				c0.3,2.2,0.9,4.4,0.9,6.6c0,0.6,0.1,1.1,0.1,1.7l0,0.5l-0.1,1.2c0,0.9-0.3,2.3-0.4,3.3c-0.7,4.4-2.4,8.3-4.5,11.1
				c-1,1.5-2.2,2.6-3.3,3.5c-1.1,0.9-2.2,1.5-3.1,1.9c-0.9,0.4-1.7,0.6-2.2,0.7c-0.4,0.1-0.6,0.1-0.7,0.1c0.1-0.1,0.3-0.2,0.6-0.5
				c0.4-0.3,0.9-0.8,1.6-1.5c0.6-0.7,1.3-1.5,2-2.5c0.6-1.1,1.3-2.3,1.8-3.6c0.5-1.4,0.9-2.9,1.3-4.6c0.3-1.7,0.5-3.4,0.5-5.3
				c0-1,0-1.7,0-2.8l0-0.8l0-0.6c0-0.5-0.1-1-0.1-1.5c-0.2-1.9-0.4-3.8-0.8-5.7c0-0.1,0-0.2,0-0.3c-0.1-0.7-0.2-1.4-0.3-2
				c-0.5-3.5-1-7.2-1.1-10.7c0-1,0-2.2,0-3.2c0.1-0.9,0.1-2,0.3-3c0.2-2,0.8-3.9,1.6-5.6c0.8-1.7,1.9-3.1,3.1-4
				c1.2-1,2.4-1.5,3.4-1.7c0.6-0.2,1.1-0.2,1.6-0.2c0.3,0,0.6,0,0.8,0c0.5,0.1,0.8,0.2,0.8,0.2s-0.3,0.1-0.7,0.2
				c-0.5,0.1-1.1,0.5-1.9,1c-0.7,0.5-1.4,1.3-2.1,2.2S202.1,203.7,201.8,205z"/>
		</g>
		<g>
			<path fill="#414042" stroke="#000000" stroke-width="0.6176" stroke-miterlimit="10" d="M218.8,195.6c-0.3,1.6-0.3,3.4-0.2,5.3
				c0.1,1,0.2,2,0.3,3.1c0.1,1,0.3,2.1,0.4,3.2c0.7,4.4,1.7,9.2,2.5,14.2c0.2,1.3,0.4,2.7,0.6,4.1c0,0.1,0,0.2,0,0.3
				c0.1,1.1,0.3,2.2,0.3,3.3c0,0.6,0,1.1,0,1.8l0,0.6l0,1.6c0,1.1-0.3,2.7-0.5,3.9c-0.4,2.5-1.1,4.9-2,7.1c-0.9,2.2-2,4.1-3.2,5.8
				c-1.2,1.7-2.6,3-3.8,4.1c-1.3,1-2.6,1.7-3.6,2.2c-1.1,0.5-1.9,0.7-2.5,0.8c-0.4,0.1-0.7,0.2-0.9,0.2c0.1-0.1,0.3-0.3,0.6-0.6
				c0.5-0.3,1.1-1,1.9-1.7c0.7-0.8,1.5-1.8,2.3-3c0.7-1.2,1.5-2.6,2.1-4.2c1.2-3.2,2-7.2,2.1-11.4c0-1.1,0-1.9,0-3.2l0-0.9l-0.1-0.8
				c0-0.6-0.1-1.1-0.1-1.7c-0.1-1.5-0.3-3-0.6-4.5c0,0,0,0,0-0.1c-0.1-0.8-0.2-1.6-0.4-2.5c-0.7-4.8-1.5-9.8-1.6-14.8
				c0-1.2-0.1-2.5,0-3.7c0.1-1.1,0.1-2.4,0.3-3.5c0.3-2.3,0.9-4.6,1.9-6.5c0.9-2,2.2-3.5,3.6-4.6c1.3-1.1,2.8-1.7,3.9-2
				c0.7-0.2,1.3-0.2,1.9-0.2c0.3,0,0.6,0,0.9,0.1c0.6,0.1,0.9,0.2,0.9,0.2s-0.3,0.1-0.9,0.3c-0.5,0.2-1.3,0.5-2.1,1.1
				c-0.8,0.6-1.7,1.5-2.4,2.6C219.6,192.6,219.1,194.1,218.8,195.6z"/>
			<path fill="#414042" stroke="#000000" stroke-width="0.6176" stroke-miterlimit="10" d="M214.4,225.1
				C214.4,225.1,214.4,225.1,214.4,225.1"/>
		</g>
		<g>
			<path fill="#414042" stroke="#000000" stroke-width="0.6176" stroke-miterlimit="10" d="M234,204.2c-0.3,1.4-0.3,2.9-0.2,4.6
				c0,0.9,0.1,1.7,0.3,2.7c0.1,0.9,0.2,1.8,0.4,2.7c0.6,3.8,1.5,7.9,2.1,12.2c0.1,0.5,0.1,1,0.2,1.5c0.2,0.9,0.3,1.9,0.5,2.8
				c0.1,0.8,0.2,1.6,0.2,2.3c0,0.6,0.1,1,0.1,1.6l-0.1,0.9l0,0.9c0,0.9-0.3,2.3-0.5,3.3c-0.7,4.3-2.3,8.3-4.4,11.1
				c-1,1.5-2.2,2.6-3.3,3.5c-1.1,0.9-2.2,1.5-3.1,1.9c-0.9,0.4-1.7,0.6-2.2,0.7c-0.4,0.1-0.6,0.1-0.7,0.1c0.1-0.1,0.3-0.2,0.6-0.5
				c0.4-0.3,0.9-0.8,1.6-1.5c0.6-0.7,1.3-1.5,2-2.6c0.6-1.1,1.3-2.3,1.8-3.6c0.5-1.4,0.9-2.9,1.3-4.6c0.3-1.7,0.5-3.4,0.5-5.3
				c0-1,0-1.7,0-2.8l0-0.8l-0.1-0.7c0-0.5-0.1-1-0.1-1.5c-0.2-1.9-0.4-3.9-0.8-6c0,0,0-0.1,0-0.1c0-0.3-0.1-0.7-0.1-1
				c-0.6-3.9-1.2-7.8-1.3-11.7c0-1,0-2.1,0-3.2c0.1-0.9,0.1-2,0.3-3c0.2-2,0.8-3.9,1.6-5.6c0.8-1.7,1.9-3.1,3.1-4
				c1.2-1,2.4-1.4,3.4-1.7c0.6-0.2,1.1-0.2,1.6-0.2c0.3,0,0.6,0,0.8,0.1c0.5,0.1,0.8,0.2,0.8,0.2s-0.3,0.1-0.7,0.2
				c-0.5,0.2-1.1,0.5-1.9,1c-0.7,0.5-1.4,1.3-2.1,2.2C234.7,201.6,234.2,202.8,234,204.2z"/>
		</g>
		<g>
			<path fill="#414042" stroke="#000000" stroke-width="0.6176" stroke-miterlimit="10" d="M197.7,265.4c-0.2,0.3-0.2,0.5-0.2,0.9
				c0,0.6,0.3,1.3,0.8,1.7c0.2,0.2,0.7,0.3,1,0.4c0.3,0,0.7,0,1-0.2c0.6-0.3,1-0.8,1.1-1.2c0-0.1,0.1-0.1,0.1-0.2l0,0.1
				c-0.1,0.1-0.1,0.3-0.2,0.4c-0.1,0.4-0.4,0.8-0.8,1.2c-0.3,0.3-0.7,0.5-1.1,0.6c-0.5,0.1-1,0.1-1.6,0c-1.1-0.3-2.1-1.5-2.1-2.8
				c0-0.6,0.2-1.3,0.6-1.8c0.4-0.5,0.9-0.8,1.5-1c1.1-0.3,2.1,0.1,2.7,0.6c0.5,0.5,0.7,0.9,0.8,1.3c0.1,0.1,0.1,0.3,0.1,0.4l0,0.1
				c0-0.1,0-0.1-0.1-0.2c-0.1-0.4-0.4-0.9-1.1-1.2c-0.6-0.3-1.4-0.2-2,0.2C198,264.9,197.8,265.1,197.7,265.4z"/>
		</g>
		<g>
			<path fill="#414042" stroke="#000000" stroke-width="0.6176" stroke-miterlimit="10" d="M219.1,265.5
				C219.1,265.5,219.1,265.5,219.1,265.5c0,0.1-0.1,0.2-0.1,0.3C219.1,265.7,219.1,265.6,219.1,265.5
				C219.1,265.5,219.1,265.5,219.1,265.5z"/>
			<path fill="#414042" stroke="#000000" stroke-width="0.6176" stroke-miterlimit="10" d="M219.1,264.3
				C219.1,264.4,219.1,264.4,219.1,264.3c0,0-0.1-0.1-0.1-0.2C219.1,264.2,219.1,264.2,219.1,264.3
				C219.1,264.3,219.1,264.3,219.1,264.3z"/>
			<path fill="#414042" stroke="#000000" stroke-width="0.6176" stroke-miterlimit="10" d="M219.1,265.5
				C219.1,265.5,219.1,265.5,219.1,265.5C219.1,265.5,219.1,265.4,219.1,265.5C219.1,265.4,219.2,265.4,219.1,265.5z"/>
			<path fill="#414042" stroke="#000000" stroke-width="0.6176" stroke-miterlimit="10" d="M219.1,264.5
				C219.1,264.4,219.1,264.4,219.1,264.5C219.1,264.4,219.1,264.4,219.1,264.5C219.2,264.4,219.2,264.4,219.1,264.5z"/>
			<path fill="#414042" stroke="#000000" stroke-width="0.6176" stroke-miterlimit="10" d="M219.1,264.3c0-0.1,0-0.1-0.1-0.2
				C219.1,264.2,219.1,264.3,219.1,264.3c0,0.1,0,0.1,0,0.2C219.2,264.4,219.2,264.4,219.1,264.3
				C219.1,264.4,219.1,264.4,219.1,264.3C219.1,264.3,219.1,264.3,219.1,264.3z M219,265.8c0-0.1,0.1-0.1,0.1-0.2c0,0,0,0,0,0
				c0,0,0,0,0,0l0,0C219.1,265.6,219.1,265.7,219,265.8z"/>
			<path fill="#414042" stroke="#000000" stroke-width="0.6176" stroke-miterlimit="10" d="M219,265.8c0-0.1,0.1-0.1,0.1-0.2
				c-0.1,0.5-0.4,1.4-1.2,2.2c-0.4,0.3-0.9,0.6-1.5,0.7c-0.6,0.1-1.2,0.1-2-0.1c-0.7-0.2-1.3-0.7-1.8-1.3c-0.5-0.6-0.7-1.4-0.7-2.3
				c0-0.7,0.3-1.6,0.8-2.2c0.5-0.6,1.1-1.1,1.8-1.3c1.4-0.4,2.7,0,3.5,0.7c0.9,0.8,1.2,1.6,1.2,2.2c0-0.1,0-0.1-0.1-0.2c0,0,0,0,0,0
				c-0.1-0.2-0.2-0.4-0.3-0.6c-0.2-0.4-0.6-0.8-1.1-1c-0.8-0.4-1.9-0.4-2.7,0.1c-0.4,0.3-0.7,0.6-1,1c-0.2,0.5-0.4,0.8-0.3,1.4
				c0,0.4,0.1,0.9,0.3,1.3c0.2,0.4,0.6,0.8,1,1c0.4,0.3,0.9,0.4,1.4,0.4c0.5,0,1-0.1,1.4-0.3c0.6-0.3,1-0.8,1.2-1.2
				C219,266.1,219,265.9,219,265.8z"/>
		</g>
		<g>
			<path fill="#414042" stroke="#000000" stroke-width="0.414" stroke-miterlimit="10" d="M208.7,262.2
				C208.7,262.2,208.7,262.2,208.7,262.2c0,0.1,0,0.1-0.1,0.2C208.6,262.3,208.7,262.2,208.7,262.2
				C208.7,262.1,208.7,262.1,208.7,262.2z"/>
			<path fill="#414042" stroke="#000000" stroke-width="0.414" stroke-miterlimit="10" d="M208.7,261.4
				C208.7,261.4,208.7,261.4,208.7,261.4c0,0,0-0.1-0.1-0.1C208.6,261.3,208.7,261.3,208.7,261.4
				C208.7,261.4,208.7,261.4,208.7,261.4z"/>
			<path fill="#414042" stroke="#000000" stroke-width="0.414" stroke-miterlimit="10" d="M208.7,262.1
				C208.7,262.1,208.7,262.1,208.7,262.1C208.7,262.1,208.7,262.1,208.7,262.1C208.7,262.1,208.7,262.1,208.7,262.1z"/>
			<path fill="#414042" stroke="#000000" stroke-width="0.414" stroke-miterlimit="10" d="M208.7,261.5
				C208.7,261.4,208.7,261.4,208.7,261.5C208.7,261.4,208.7,261.4,208.7,261.5C208.7,261.4,208.7,261.4,208.7,261.5z"/>
			<path fill="#414042" stroke="#000000" stroke-width="0.414" stroke-miterlimit="10" d="M208.7,261.3c0,0,0-0.1,0-0.1
				C208.6,261.3,208.7,261.3,208.7,261.3c0,0.1,0,0.1,0,0.1C208.7,261.4,208.7,261.4,208.7,261.3
				C208.7,261.4,208.7,261.4,208.7,261.3C208.7,261.4,208.7,261.4,208.7,261.3z M208.6,262.3c0,0,0.1-0.1,0.1-0.1c0,0,0,0,0,0
				c0,0,0,0,0,0l0,0C208.7,262.2,208.6,262.3,208.6,262.3z"/>
			<path fill="#414042" stroke="#000000" stroke-width="0.414" stroke-miterlimit="10" d="M208.6,262.3c0,0,0.1-0.1,0.1-0.1
				c-0.1,0.4-0.2,0.9-0.8,1.5c-0.3,0.2-0.6,0.4-1,0.5c-0.4,0.1-0.8,0.1-1.3-0.1c-0.4-0.1-0.9-0.4-1.2-0.9c-0.3-0.4-0.5-0.9-0.5-1.5
				c0-0.4,0.2-1.1,0.5-1.5c0.3-0.4,0.7-0.7,1.2-0.9c0.9-0.3,1.8,0,2.3,0.5c0.6,0.5,0.8,1.1,0.8,1.5c0,0,0-0.1,0-0.1c0,0,0,0,0,0
				c0-0.1-0.1-0.3-0.2-0.4c-0.2-0.3-0.4-0.5-0.7-0.7c-0.5-0.3-1.3-0.3-1.8,0.1c-0.3,0.2-0.5,0.4-0.6,0.7c-0.1,0.3-0.2,0.5-0.2,0.9
				c0,0.3,0.1,0.6,0.2,0.9c0.1,0.3,0.4,0.5,0.6,0.7c0.2,0.2,0.6,0.3,0.9,0.3c0.3,0,0.6-0.1,0.9-0.2c0.4-0.2,0.7-0.5,0.8-0.8
				C208.6,262.5,208.6,262.4,208.6,262.3z"/>
		</g>
		<g>
			<path fill="#414042" stroke="#000000" stroke-width="0.6176" stroke-miterlimit="10" d="M208.6,272
				C208.6,272,208.6,272.1,208.6,272C208.6,272,208.6,272,208.6,272C208.6,271.9,208.6,271.9,208.6,272z"/>
			<path fill="#414042" stroke="#000000" stroke-width="0.6176" stroke-miterlimit="10" d="M208.6,271.8L208.6,271.8
				c0,0.1,0,0.2,0,0.2c0,0,0,0,0-0.1C208.6,271.9,208.6,271.9,208.6,271.8z"/>
			<path fill="#414042" stroke="#000000" stroke-width="0.6176" stroke-miterlimit="10" d="M204.7,271.1c-0.1,0.3-0.2,0.6-0.2,1
				c0,0.6,0.3,1.3,0.9,1.7c0.2,0.2,0.7,0.3,1,0.4c0.3,0,0.7,0,1-0.2c0.6-0.3,1-0.8,1.1-1.3c0-0.1,0.1-0.1,0.1-0.2c0,0,0,0,0,0
				c0,0.1-0.1,0.3-0.1,0.4c0,0.1-0.1,0.2-0.2,0.3c-0.1,0.3-0.3,0.7-0.7,1c-0.3,0.3-0.7,0.5-1.2,0.6c-0.5,0.1-1,0.1-1.6,0
				c-0.5-0.2-1.1-0.5-1.5-1c-0.4-0.5-0.6-1.2-0.6-1.8c0-0.6,0.2-1.4,0.6-1.8c0.4-0.5,0.9-0.9,1.5-1c1.1-0.3,2.2,0.1,2.7,0.6
				c0.7,0.7,0.9,1.3,1,1.8l0,0.1c0-0.1,0-0.1-0.1-0.2c-0.1-0.4-0.4-1-1.1-1.3c-0.6-0.3-1.5-0.3-2.1,0.2
				C205,270.5,204.8,270.8,204.7,271.1z"/>
		</g>
		<g>
			<path fill="#414042" stroke="#000000" stroke-width="0.6176" stroke-miterlimit="10" d="M219,272.6c0,0.2-0.1,0.2,0,0.3
				c0,0.2,0,0.4,0.2,0.7c0.1,0.1,0.3,0.2,0.4,0.3c0.2,0.1,0.4,0.1,0.5,0c0.3-0.1,0.6-0.4,0.6-0.6c0,0,0-0.1,0.1-0.1c0,0,0,0,0,0
				l0,0.1c-0.1,0.2-0.2,0.6-0.5,0.9c-0.1,0.2-0.4,0.3-0.7,0.4c-0.3,0.1-0.6,0.1-1,0.1c-0.7-0.1-1.4-0.9-1.4-1.8
				c0-0.4,0.2-0.9,0.5-1.2c0.2-0.3,0.6-0.5,1-0.6c0.7-0.2,1.4,0.2,1.7,0.5c0.3,0.4,0.5,0.8,0.5,1c0,0.2,0,0.3,0,0.3s0-0.1-0.1-0.3
				c0-0.2-0.3-0.5-0.6-0.6c-0.3-0.1-0.8,0-1,0.3C219.1,272.3,219.1,272.5,219,272.6z"/>
		</g>
	</g>
	<g>
		<g>
			<path fill="#414042" d="M128.2,87.8l1.2-0.5l0.2,0.2c2.4,2.6,4.6,4.6,6.6,5.7c2.1,1.2,4.1,1.8,6,1.8c1.4,0,2.9-0.3,4.2-1
				c2.2-1.1,3.6-2.7,4.3-4.9c0.7-2.2,0.4-4.4-0.7-6.6c-0.5-1-1.2-1.9-2-2.7c-0.8-0.8-1.7-1.5-2.6-1.9c-0.9-0.5-2.1-0.8-3.4-1
				c-1.3-0.2-3.1-0.3-5.5-0.3l-1.3,0c-2,0-3.6-0.1-4.7-0.2c-1.3-0.1-2.5-0.4-3.5-0.8c-2.7-1-4.7-2.9-6.1-5.6
				c-0.8-1.7-1.3-3.4-1.4-5.3c-0.1-1.9,0.2-3.7,0.8-5.4c1.1-3,3.2-5.3,6.1-6.8c0.9-0.5,1.9-0.8,2.8-1c0.9-0.2,2.1-0.4,3.7-0.5
				c1.2-0.1,1.9-0.2,2.3-0.3c0.4-0.1,0.7-0.2,0.9-0.3c0.2-0.1,0.8-0.4,0.5-1.8l-0.1-0.2l1.2-0.6l6.4,12.1l-1.2,0.6l-0.2-0.2
				c-1.5-1.6-2.6-2.8-3.5-3.6c-0.9-0.8-1.8-1.5-2.7-2c-1.7-1-3.3-1.6-4.8-1.7c-0.2,0-0.4,0-0.7,0c-1.2,0-2.5,0.3-3.7,0.9
				c-2.1,1.1-3.4,2.6-3.9,4.7c-0.2,0.8-0.3,1.7-0.2,2.7c0.1,0.9,0.4,1.8,0.8,2.6c1.5,3,4.6,4.5,9.3,4.5c0.2,0,0.5,0,0.7,0l5.1-0.1
				c0.4,0,0.8,0,1.3,0c3.4,0,6.2,0.5,8.3,1.5c2.7,1.2,4.8,3.3,6.1,6c0.9,1.8,1.5,3.8,1.6,5.8c0.1,2.9-0.5,5.5-1.9,7.8
				c-1.4,2.3-3.6,4.2-6.4,5.6c-2.6,1.3-5.3,2-8.2,2.2c-1.5,0.1-2.4,0.2-2.6,0.2c-0.2,0-0.5,0.1-0.8,0.3c-0.8,0.4-1.2,1.1-1.1,2.1
				l0,0.2l-1.1,0.6L128.2,87.8z"/>
			<path fill="#414042" d="M137.5,48.2l6.1,11.5l-0.7,0.3c-1.5-1.6-2.6-2.8-3.5-3.6c-0.9-0.8-1.8-1.5-2.8-2.1
				c-1.7-1-3.4-1.6-4.9-1.8c-0.2,0-0.5,0-0.7,0c-1.3,0-2.6,0.3-3.8,1c-2.2,1.1-3.5,2.7-4,4.9c-0.2,0.9-0.3,1.8-0.2,2.8
				c0.1,1,0.4,1.9,0.8,2.7c1.6,3.1,4.8,4.7,9.6,4.7c0.2,0,0.5,0,0.7,0l5.1-0.1c0.4,0,0.8,0,1.2,0c3.4,0,6.1,0.5,8.2,1.5
				c2.6,1.2,4.6,3.2,6,5.9c0.9,1.8,1.4,3.7,1.5,5.7c0.1,2.8-0.5,5.3-1.9,7.6c-1.4,2.3-3.5,4.1-6.2,5.5c-2.5,1.3-5.2,2-8,2.2
				c-1.5,0.1-2.4,0.2-2.6,0.2c-0.3,0-0.6,0.1-0.9,0.3c-0.9,0.5-1.3,1.3-1.2,2.4l-0.7,0.3L128.7,88l0.7-0.3c2.4,2.7,4.6,4.6,6.6,5.8
				c2.2,1.2,4.2,1.9,6.2,1.9c1.5,0,3-0.3,4.4-1c2.2-1.1,3.7-2.8,4.4-5.1c0.7-2.3,0.5-4.5-0.7-6.8c-0.5-1-1.2-1.9-2-2.8
				c-0.8-0.9-1.7-1.5-2.7-2c-1-0.5-2.1-0.8-3.5-1c-1.3-0.2-3.1-0.3-5.5-0.3c-0.2,0-0.4,0-0.6,0c-0.3,0-0.5,0-0.8,0
				c-2,0-3.5-0.1-4.7-0.2c-1.3-0.1-2.4-0.4-3.4-0.8c-2.6-1-4.6-2.8-5.9-5.4c-0.8-1.6-1.3-3.4-1.4-5.2c-0.1-1.8,0.1-3.6,0.8-5.3
				c1.1-3,3.1-5.2,5.9-6.6c0.9-0.5,1.8-0.8,2.7-1c0.9-0.2,2.1-0.4,3.7-0.5c1.2-0.1,2-0.2,2.4-0.3c0.4-0.1,0.7-0.2,1-0.3
				c0.7-0.3,0.9-1.1,0.6-2.2L137.5,48.2 M137.8,47.3l-0.5,0.3l-0.7,0.3l-0.4,0.2l0.1,0.5c0.3,1.2-0.1,1.4-0.3,1.5
				c-0.2,0.1-0.5,0.2-0.8,0.3c-0.3,0-0.9,0.1-2.3,0.3c-1.6,0.1-2.9,0.3-3.8,0.5c-0.9,0.2-1.9,0.6-2.8,1.1c-3,1.5-5.1,3.8-6.2,6.9
				c-0.7,1.7-0.9,3.6-0.8,5.5c0.1,1.9,0.6,3.7,1.5,5.4c1.4,2.8,3.5,4.7,6.3,5.7c1,0.4,2.2,0.6,3.5,0.8c1.2,0.1,2.8,0.2,4.8,0.2
				l0.8,0l0.6,0c2.3,0,4.2,0.1,5.4,0.3c1.3,0.2,2.4,0.5,3.3,0.9c0.9,0.4,1.7,1.1,2.5,1.9c0.8,0.8,1.5,1.7,1.9,2.7
				c1.1,2.2,1.3,4.3,0.7,6.4c-0.7,2.1-2,3.6-4.1,4.7c-1.3,0.7-2.7,1-4.1,1c-1.9,0-3.8-0.6-5.9-1.8c-2-1.2-4.1-3.1-6.5-5.7l-0.3-0.3
				l-0.4,0.2l-0.7,0.3l-0.6,0.3l0.3,0.6l6.1,12.2l0.3,0.6l0.6-0.3l0.7-0.3l0.4-0.2l0-0.4c-0.1-0.9,0.2-1.4,0.9-1.8
				c0.2-0.1,0.5-0.2,0.7-0.2c0.2,0,1.1-0.1,2.6-0.2c2.9-0.2,5.7-0.9,8.3-2.3c2.8-1.4,5-3.4,6.5-5.7c1.5-2.4,2.1-5,2-8
				c-0.1-2.1-0.7-4.1-1.6-6c-1.4-2.8-3.5-4.9-6.3-6.2c-2.1-1-5-1.5-8.4-1.6c-0.4,0-0.8,0-1.3,0l-5.1,0.1c-0.3,0-0.5,0-0.7,0
				c-4.6,0-7.5-1.5-9-4.4c-0.4-0.8-0.6-1.6-0.7-2.5c-0.1-0.9-0.1-1.8,0.1-2.6c0.5-2,1.7-3.4,3.7-4.5c1.2-0.6,2.4-0.9,3.6-0.9
				c0.2,0,0.4,0,0.6,0c1.4,0.1,3,0.7,4.6,1.7c0.9,0.6,1.8,1.2,2.7,2c0.9,0.8,2,2,3.5,3.5l0.3,0.3l0.4-0.2l0.7-0.3l0.6-0.3l-0.3-0.6
				l-6.1-11.5L137.8,47.3L137.8,47.3z"/>
		</g>
		<g>
			<path fill="#414042" d="M197.3,75.7c-2.9,0-5.4-0.6-7.4-1.7c-2.3-1.2-3.9-3.2-4.9-5.8c-0.3-0.9-0.8-2.6-1.3-5.1l-4.4-19.5
				c-0.5-2.2-1-3.8-1.4-4.7c-0.4-0.9-1.1-1.7-1.8-2.2c-0.7-0.5-1.4-0.8-2.2-0.9c-0.3,0-0.5-0.1-0.8-0.1c-0.6,0-1.4,0.1-2.2,0.2
				l-0.3,0l-0.3-1.3l21.1-4.7l0.3,1.3l-0.3,0.1c-1.2,0.3-2.1,0.7-2.8,1.1c-0.7,0.4-1.2,1-1.6,1.7c-0.5,0.8-0.8,1.8-0.7,2.8
				c0,1.1,0.3,3,0.9,5.5l4.1,18.2c0.7,2.9,1.2,5,1.8,6.3c0.5,1.2,1.2,2.3,2.1,3.2c1.4,1.4,2.9,2.3,4.5,2.7c0.7,0.2,1.5,0.3,2.3,0.3
				c1.1,0,2.2-0.1,3.5-0.4c2.2-0.5,4.2-1.3,6.1-2.4c1.8-1.1,3.3-2.4,4.3-3.9c0.6-0.9,1.1-1.8,1.2-2.7c0.2-0.9,0.2-2.1,0-3.4
				c-0.1-0.9-0.5-3-1.3-6.2l-4-17.9c-0.5-2.2-1-3.8-1.4-4.7c-0.5-0.9-1.1-1.7-1.8-2.2c-0.7-0.5-1.4-0.7-2.2-0.8
				c-0.3,0-0.5-0.1-0.8-0.1c-0.6,0-1.4,0.1-2.2,0.2l-0.3,0l-0.3-1.3L218,24l0.3,1.3l-0.3,0.1c-1.2,0.3-2.1,0.7-2.8,1.1
				c-0.7,0.4-1.2,1-1.6,1.7c-0.5,0.8-0.7,1.7-0.7,2.8c0,1.1,0.2,2.7,0.7,4.9l4.5,20.3c0.7,3.1,0.9,5.3,0.8,6.9
				c-0.1,1.6-0.8,3.1-1.9,4.7c-2.6,3.4-6.8,5.9-12.7,7.2C201.8,75.5,199.4,75.7,197.3,75.7z"/>
			<path fill="#414042" d="M217.8,24.4l0.2,0.7c-1.2,0.3-2.2,0.7-2.9,1.2c-0.7,0.4-1.3,1.1-1.7,1.8c-0.5,0.8-0.8,1.8-0.8,2.9
				c0,1.1,0.2,2.8,0.7,4.9l4.5,20.3c0.7,3,0.9,5.3,0.8,6.8c-0.1,1.5-0.8,3-1.9,4.5c-2.5,3.4-6.7,5.7-12.5,7c-2.6,0.6-4.9,0.9-7,0.8
				c-2.8,0-5.3-0.6-7.2-1.7c-2.2-1.2-3.8-3.1-4.8-5.7c-0.3-0.9-0.8-2.6-1.3-5.1l-4.4-19.5c-0.5-2.2-1-3.8-1.4-4.8
				c-0.5-1-1.1-1.8-2-2.3c-0.7-0.5-1.5-0.8-2.3-0.9c-0.3,0-0.5-0.1-0.9-0.1c-0.7,0-1.4,0.1-2.3,0.2l-0.2-0.7l20.5-4.6l0.2,0.7
				c-1.2,0.3-2.2,0.7-2.9,1.2c-0.7,0.5-1.3,1.1-1.7,1.8c-0.5,0.9-0.8,1.9-0.8,3c0,1.1,0.3,3,0.9,5.6l4.1,18.2c0.7,3,1.3,5.1,1.8,6.3
				c0.5,1.3,1.2,2.4,2.2,3.3c1.4,1.5,2.9,2.4,4.6,2.8c0.7,0.2,1.5,0.3,2.4,0.3c1.1,0,2.3-0.1,3.6-0.4c2.2-0.5,4.3-1.3,6.1-2.4
				c1.9-1.1,3.3-2.4,4.4-3.9c0.7-0.9,1.1-1.9,1.3-2.9c0.2-1,0.2-2.1,0-3.5c-0.1-0.9-0.5-3-1.3-6.3l-4-17.9c-0.5-2.2-1-3.8-1.5-4.8
				c-0.5-1-1.1-1.8-1.9-2.3c-0.7-0.5-1.5-0.8-2.3-0.9c-0.3,0-0.6-0.1-0.9-0.1c-0.6,0-1.4,0.1-2.2,0.2l-0.2-0.7L217.8,24.4
				 M218.3,23.6l-0.6,0.1l-14.8,3.3l-0.6,0.1l0.1,0.6l0.2,0.7l0.1,0.6l0.6-0.1c0.8-0.1,1.5-0.2,2.1-0.2c0.3,0,0.5,0,0.8,0
				c0.7,0.1,1.4,0.4,2.1,0.8c0.7,0.5,1.3,1.2,1.7,2c0.5,0.9,0.9,2.5,1.4,4.7l4,17.9c0.7,3.2,1.1,5.3,1.3,6.2c0.2,1.3,0.2,2.4,0,3.3
				c-0.2,0.9-0.6,1.8-1.2,2.6c-1,1.4-2.5,2.7-4.2,3.8c-1.8,1.1-3.8,1.9-6,2.4c-1.2,0.3-2.4,0.4-3.4,0.4c-0.8,0-1.6-0.1-2.2-0.3
				c-1.6-0.4-3-1.3-4.3-2.7c-0.9-0.9-1.6-2-2.1-3.1c-0.5-1.2-1.1-3.3-1.7-6.2l-4.1-18.2c-0.6-2.5-0.9-4.4-0.9-5.5
				c0-1,0.2-1.9,0.7-2.7c0.4-0.7,0.9-1.2,1.5-1.6c0.7-0.4,1.6-0.8,2.7-1.1l0.6-0.2l-0.1-0.6l-0.2-0.7l-0.1-0.6l-0.6,0.1l-20.5,4.6
				l-0.6,0.1l0.1,0.6l0.2,0.7l0.1,0.6l0.6-0.1c0.8-0.1,1.5-0.2,2.2-0.2c0.3,0,0.5,0,0.8,0c0.7,0.1,1.4,0.4,2,0.8
				c0.8,0.5,1.3,1.2,1.8,2c0.4,0.9,0.9,2.5,1.4,4.7l4.4,19.5c0.6,2.5,1,4.2,1.4,5.1c1,2.7,2.7,4.7,5.1,6c2.1,1.1,4.6,1.7,7.5,1.7
				c2.1,0,4.5-0.3,7.2-0.9c5.9-1.3,10.2-3.8,12.8-7.3c1.2-1.6,1.8-3.2,2-4.8c0.1-1.6-0.1-3.9-0.8-7l-4.5-20.3
				c-0.5-2.1-0.7-3.7-0.7-4.8c0-1,0.2-1.9,0.7-2.6c0.4-0.7,0.9-1.2,1.5-1.6c0.6-0.4,1.5-0.8,2.7-1.1l0.6-0.2l-0.1-0.6l-0.2-0.7
				L218.3,23.6L218.3,23.6z"/>
		</g>
		<g>
			<path fill="#414042" d="M247.6,67.4l0-1.4l0.3,0c1.2,0,2.2-0.2,3-0.4c0.7-0.3,1.4-0.7,2-1.2c0.7-0.6,1.2-1.5,1.4-2.5
				c0.3-1,0.4-2.7,0.5-4.9l0.8-24.2c0.1-1.8,0-3.3-0.1-4.3c-0.1-1-0.4-1.8-0.7-2.4c-0.5-0.8-1.2-1.5-2-1.9c-0.8-0.4-1.9-0.7-3.3-0.9
				l-0.5,0l0-1.4l20.1,0.7c3.5,0.1,6.1,0.4,7.7,0.8c1.7,0.4,3.2,1.2,4.6,2.3c3.1,2.5,4.6,5.8,4.5,9.9c-0.1,4.1-1.9,7.1-5.2,8.9
				c-1.7,0.9-3.8,1.5-6.2,1.6c-0.3,0-0.7,0-1.3,0c-1,0-2.3,0-4.1-0.1l-6.1-0.2l-0.4,11.5c-0.1,2.2,0,3.9,0.2,4.9
				c0.2,1,0.6,1.9,1.2,2.6c0.5,0.6,1.2,1.1,1.9,1.4c0.7,0.3,1.7,0.5,3,0.6l0.3,0l0,1.4L247.6,67.4z M266,44.2c0.4,0,0.7,0,1.1,0l0,0
				c1.6,0,2.9-0.1,3.9-0.3c1.1-0.3,2.2-0.8,3.1-1.6c2.1-1.8,3.3-4.3,3.4-7.5c0.1-1.8-0.2-3.4-0.8-4.9c-0.5-1.5-1.4-2.7-2.5-3.6
				c-1.3-1.1-2.8-1.8-4.5-2.1c-0.5-0.1-1.6-0.1-3.4-0.2l-2.5-0.1l-0.7,20.1L266,44.2z"/>
			<path fill="#414042" d="M249.4,22.2l19.8,0.7c3.5,0.1,6,0.4,7.6,0.8c1.6,0.4,3.1,1.2,4.4,2.3c3,2.5,4.5,5.7,4.4,9.6
				c-0.1,4-1.8,6.9-5,8.7c-1.7,0.9-3.7,1.4-6,1.5c-0.3,0-0.7,0-1.3,0c-1,0-2.3,0-4.1-0.1l-6.4-0.2l-0.4,11.8c-0.1,2.2,0,3.9,0.2,5
				c0.2,1.1,0.7,2,1.3,2.7c0.6,0.6,1.2,1.1,2,1.4c0.8,0.3,1.8,0.5,3.1,0.6l0,0.8l-21-0.7l0-0.8c1.3,0,2.3-0.2,3.1-0.4
				c0.8-0.3,1.5-0.7,2.1-1.3c0.7-0.7,1.2-1.6,1.5-2.6c0.3-1.1,0.5-2.7,0.5-5l0.8-24.2c0.1-1.9,0-3.3-0.1-4.4c-0.1-1-0.4-1.9-0.8-2.5
				c-0.5-0.9-1.2-1.6-2.1-2c-0.9-0.5-2-0.8-3.4-0.9l-0.2,0L249.4,22.2 M267.1,44.5c1.7,0,3-0.1,4-0.3c1.2-0.3,2.3-0.8,3.2-1.7
				c2.2-1.9,3.4-4.4,3.5-7.7c0.1-1.8-0.2-3.5-0.8-5c-0.6-1.5-1.4-2.8-2.6-3.8c-1.3-1.2-2.9-1.9-4.7-2.1c-0.5-0.1-1.7-0.1-3.5-0.2
				l-2.8-0.1l-0.7,20.7l3.2,0.1C266.4,44.5,266.8,44.5,267.1,44.5 M248.8,21.6l0,0.6l0,0.8l0,0.6l0.6,0l0.2,0
				c1.3,0.1,2.3,0.4,3.1,0.8c0.8,0.4,1.4,1,1.9,1.8c0.3,0.6,0.6,1.3,0.7,2.3c0.1,1,0.2,2.4,0.1,4.3L254.6,57
				c-0.1,2.2-0.2,3.8-0.5,4.9c-0.2,0.9-0.7,1.7-1.3,2.3c-0.6,0.5-1.2,0.9-1.9,1.2c-0.7,0.2-1.7,0.4-2.9,0.4l-0.6,0l0,0.6l0,0.8
				l0,0.6l0.6,0l21,0.7l0.6,0l0-0.6l0-0.8l0-0.6l-0.6,0c-1.2-0.1-2.2-0.3-2.9-0.6c-0.7-0.3-1.3-0.7-1.8-1.3c-0.6-0.6-1-1.5-1.2-2.4
				c-0.2-1-0.3-2.7-0.2-4.9l0.4-11.2l5.8,0.2c1.8,0.1,3.2,0.1,4.1,0.1c0.6,0,1,0,1.3,0c2.4-0.1,4.6-0.7,6.3-1.6
				c3.4-1.9,5.2-4.9,5.4-9.2c0.1-4.1-1.4-7.5-4.6-10.1c-1.4-1.1-3-1.9-4.7-2.4c-1.7-0.4-4.3-0.7-7.8-0.8l-19.8-0.7L248.8,21.6
				L248.8,21.6z M263.4,43.8l0.6-19.4l2.1,0.1c1.8,0.1,2.9,0.1,3.4,0.2c1.7,0.2,3.2,0.9,4.4,2c1.1,0.9,1.9,2.1,2.4,3.5
				c0.5,1.4,0.8,3,0.7,4.7c-0.1,3.1-1.2,5.5-3.3,7.2c-0.9,0.8-1.9,1.3-2.9,1.5c-0.9,0.2-2.2,0.3-3.8,0.3c-0.3,0-0.7,0-1.1,0
				L263.4,43.8L263.4,43.8z"/>
		</g>
		<g>
			<path fill="#414042" d="M304,71.5l0.4-1.3l0.3,0.1c0.9,0.2,1.8,0.3,2.5,0.3c0.2,0,0.4,0,0.5,0c0.8-0.1,1.5-0.3,2.2-0.7
				c0.8-0.5,1.4-1.2,2-2.1c0.5-1,1.1-2.5,1.7-4.6l6.5-23.4c0.6-2.1,0.9-3.7,1-4.8c0-1.1-0.2-2-0.6-2.8c-0.4-0.7-0.9-1.3-1.5-1.8
				c-0.6-0.5-1.6-0.9-2.7-1.3l-0.3-0.1l0.4-1.3l34.6,9.7l-2.5,11.2l-1.3-0.3l0-0.3c0.2-1.8,0.2-3.4-0.1-4.7
				c-0.3-1.3-0.9-2.5-1.8-3.7c-0.8-1-1.8-1.8-3-2.5c-1.2-0.7-3-1.3-5.2-1.9l-7-1.9l-5.2,18.4l1.6,0.4c1.9,0.5,3.4,0.8,4.4,0.8
				c0,0,0,0,0,0c1,0,1.9-0.2,2.6-0.7c0.7-0.4,1.3-1,1.8-1.7c0.5-0.7,1.1-1.9,1.7-3.4l0.1-0.3l1.3,0.4l-5,17.5l-1.3-0.4l0-0.3
				c0.3-1.7,0.3-3,0.3-4.1c-0.1-1.1-0.4-2-0.8-2.8c-0.4-0.8-1.1-1.5-2-2.1c-0.9-0.6-2.1-1.1-3.6-1.5l-1.5-0.4l-1.9,7
				c-0.8,2.9-1.3,5-1.5,6.3c-0.2,1.3-0.2,2.5-0.1,3.4c0.3,1.6,1,3,2.2,4.1c1.2,1.1,3,2,5.4,2.6c2,0.6,3.8,0.8,5.4,0.8
				c0.4,0,0.8,0,1.2,0c1.8-0.2,3.5-0.8,4.9-1.8c1-0.7,1.9-1.5,2.7-2.5c0.8-1,1.6-2.4,2.6-4.2l0.1-0.2l1.3,0.4l-4.1,13.1L304,71.5z"
				/>
			<path fill="#414042" d="M316.4,28.1l34.1,9.5l-2.4,10.6l-0.7-0.2c0.2-1.9,0.2-3.4-0.1-4.8c-0.3-1.3-0.9-2.6-1.9-3.8
				c-0.8-1-1.8-1.9-3.1-2.6c-1.3-0.7-3-1.3-5.3-2l-7.3-2l-5.3,19l1.9,0.5c1.9,0.5,3.4,0.8,4.4,0.8c0,0,0,0,0.1,0
				c1,0,1.9-0.2,2.7-0.7c0.8-0.4,1.4-1,1.9-1.8c0.5-0.8,1.1-1.9,1.7-3.5l0.7,0.2l-4.9,16.9l-0.7-0.2c0.3-1.7,0.3-3.1,0.3-4.2
				c-0.1-1.1-0.4-2.1-0.8-3c-0.4-0.9-1.1-1.6-2.1-2.2c-0.9-0.6-2.2-1.1-3.7-1.6l-1.8-0.5l-2,7.3c-0.8,2.9-1.3,5-1.5,6.4
				c-0.2,1.4-0.2,2.5-0.1,3.6c0.3,1.7,1.1,3.1,2.3,4.3c1.3,1.1,3.1,2,5.5,2.7c2,0.6,3.8,0.9,5.4,0.9c0.4,0,0.8,0,1.2,0
				c1.9-0.2,3.6-0.8,5-1.8c1-0.7,1.9-1.6,2.7-2.6c0.8-1,1.7-2.4,2.6-4.2l0.7,0.2l-3.9,12.5l-37.8-10.6l0.2-0.7
				c1,0.2,1.8,0.3,2.5,0.3c0.2,0,0.4,0,0.5,0c0.8-0.1,1.6-0.3,2.4-0.8c0.8-0.5,1.5-1.2,2.1-2.2c0.5-1,1.1-2.5,1.7-4.7l6.5-23.4
				c0.6-2.2,0.9-3.8,1-4.9c0-1.1-0.2-2.1-0.6-3c-0.4-0.8-0.9-1.4-1.6-1.9c-0.7-0.5-1.6-0.9-2.8-1.3L316.4,28.1 M316,27.3l-0.2,0.6
				l-0.2,0.7l-0.2,0.6l0.6,0.2c1.1,0.4,2,0.8,2.7,1.3c0.6,0.4,1.1,1,1.4,1.7c0.4,0.8,0.6,1.7,0.6,2.6c0,1.1-0.4,2.7-1,4.8l-6.5,23.4
				c-0.6,2.1-1.1,3.6-1.7,4.6c-0.5,0.9-1.1,1.5-1.8,2c-0.7,0.4-1.4,0.6-2.1,0.7c-0.2,0-0.3,0-0.5,0c-0.7,0-1.5-0.1-2.4-0.3l-0.6-0.1
				l-0.2,0.6l-0.2,0.7l-0.2,0.6l0.6,0.2L342,82.5l0.6,0.2l0.2-0.6l3.9-12.5l0.2-0.6l-0.6-0.2l-0.7-0.2l-0.5-0.2l-0.2,0.5
				c-0.9,1.7-1.8,3.1-2.5,4.1c-0.8,1-1.6,1.8-2.6,2.5c-1.4,1-3,1.6-4.7,1.7c-0.4,0-0.7,0-1.1,0c-1.5,0-3.3-0.3-5.3-0.8
				c-2.3-0.6-4.1-1.5-5.3-2.6c-1.2-1-1.9-2.3-2.1-3.9c-0.2-0.9-0.1-2.1,0.1-3.3c0.2-1.3,0.7-3.5,1.5-6.3l1.9-6.7l1.2,0.3
				c1.5,0.4,2.7,0.9,3.6,1.5c0.8,0.5,1.5,1.2,1.8,1.9c0.4,0.8,0.7,1.7,0.8,2.7c0.1,1,0,2.4-0.3,4l-0.1,0.5l0.5,0.1l0.7,0.2l0.6,0.2
				l0.2-0.6l4.9-16.9l0.2-0.6l-0.6-0.2l-0.7-0.2l-0.5-0.2l-0.2,0.5c-0.6,1.5-1.2,2.7-1.7,3.4c-0.5,0.7-1,1.2-1.7,1.6
				c-0.7,0.4-1.5,0.6-2.4,0.6c-1,0-2.5-0.3-4.4-0.8l-1.3-0.4l5-17.8l6.7,1.9c2.2,0.6,3.9,1.3,5.1,1.9c1.2,0.6,2.2,1.4,2.9,2.4
				c0.9,1.1,1.5,2.4,1.8,3.6c0.3,1.3,0.3,2.8,0.1,4.6l-0.1,0.5l0.5,0.1l0.7,0.2l0.6,0.1l0.1-0.6l2.4-10.6l0.1-0.6l-0.6-0.2
				l-34.1-9.5L316,27.3L316,27.3z"/>
		</g>
		<g>
			<path fill="#414042" d="M387.9,105.6c0,0,0.2-2.4,0.3-2.7l0.6-5.7c0.4-3.4,0.5-6.5,0.5-9.3c0-2.7-0.3-4.8-0.9-6
				c-0.3-0.6-0.7-1.2-1.1-1.7c-0.5-0.5-1.1-1-2-1.4l-1.1-0.6l-5.6,9.8c-1.1,1.9-1.8,3.4-2.1,4.4c-0.3,1-0.3,2-0.1,2.9
				c0.2,0.8,0.5,1.5,1,2.1c0.5,0.6,1.3,1.3,2.3,1.9l0.2,0.2l-0.7,1.2l-18.8-10.8l0.7-1.2l0.3,0.1c1.1,0.6,2.1,0.9,2.8,1
				c0.3,0,0.5,0.1,0.8,0.1c0.5,0,1-0.1,1.5-0.2c0.9-0.2,1.7-0.8,2.4-1.5c0.7-0.8,1.7-2.2,2.8-4.1l12.1-21c1.1-1.9,1.8-3.4,2.2-4.5
				c0.3-1,0.3-1.9,0.1-2.8c-0.2-0.8-0.5-1.5-1-2.1c-0.5-0.6-1.3-1.3-2.3-1.9l-0.2-0.2l0.7-1.2l14,8.1c2.3,1.3,3.8,2.2,4.5,2.6
				c2.9,1.8,5,3.6,6.3,5.3c1.5,1.9,2.3,3.9,2.5,6.1c0.2,2.2-0.3,4.3-1.5,6.3c-1.7,3-4.3,4.8-7.7,5.3c-0.5,0.1-1.1,0.1-1.6,0.1
				c-0.5,0-1,0-1.5-0.1c-0.8-0.1-1.9-0.3-3-0.7c0.6,0.8,1,1.6,1.2,2.3c0.2,0.7,0.3,1.4,0.4,2.3c0,0.8,0,2.2-0.2,4.1
				c-0.3,4.5-0.5,7.7-0.5,9.8c-0.1,2.1,0,3.7,0.2,4.7c0.1,0.8,0.3,1.5,0.6,1.9c0.3,0.5,0.8,0.9,1.5,1.4l0.2,0.2l-0.7,1.2
				L387.9,105.6z M385.7,77.4c2.3,1.3,4.1,2.2,5.2,2.5c0.5,0.1,1.1,0.2,1.7,0.2c0.6,0,1.3-0.1,2-0.2c3-0.7,5.3-2.5,6.9-5.2
				c0.8-1.5,1.3-3,1.5-4.6c0.2-1.6,0-3.1-0.5-4.5c-0.4-1.1-1.1-2-2-2.9c-0.9-0.9-2.4-1.9-4.4-3l-0.9-0.5L384.9,77L385.7,77.4z"/>
			<path fill="#414042" d="M383.3,50.8l13.7,7.9c2.3,1.3,3.8,2.2,4.5,2.6c2.9,1.8,5,3.6,6.2,5.2c1.4,1.8,2.3,3.8,2.4,5.9
				c0.2,2.1-0.3,4.2-1.5,6.2c-1.7,3-4.2,4.7-7.5,5.2c-0.5,0.1-1.1,0.1-1.6,0.1c-0.5,0-0.9,0-1.4-0.1c-1-0.1-2.3-0.4-3.9-0.9
				c0.9,1.1,1.4,2.1,1.7,2.9c0.2,0.7,0.3,1.4,0.3,2.2c0,0.8,0,2.2-0.2,4.1c-0.3,4.5-0.5,7.7-0.5,9.8c-0.1,2.1,0,3.7,0.2,4.7
				c0.1,0.9,0.4,1.5,0.7,2c0.3,0.5,0.8,1,1.6,1.5l-0.4,0.7l-9.5-5.4c0.1-1.3,0.2-2.2,0.2-2.5l0.6-5.7c0.4-3.4,0.5-6.5,0.5-9.3
				c0-2.8-0.3-4.8-0.9-6.2c-0.3-0.7-0.7-1.3-1.2-1.8c-0.5-0.5-1.2-1-2-1.5l-1.4-0.8l-5.8,10.1c-1.1,1.9-1.8,3.4-2.2,4.5
				c-0.3,1.1-0.4,2.1-0.1,3c0.2,0.8,0.6,1.6,1.1,2.2c0.5,0.6,1.3,1.3,2.4,2l-0.4,0.7l-18.2-10.5l0.4-0.7c1.1,0.6,2.1,0.9,2.9,1.1
				c0.3,0,0.6,0.1,0.8,0.1c0.5,0,1.1-0.1,1.6-0.2c1-0.3,1.8-0.8,2.6-1.6c0.7-0.8,1.7-2.2,2.8-4.2l12.1-21c1.1-2,1.9-3.5,2.2-4.5
				c0.3-1.1,0.4-2.1,0.1-3c-0.2-0.8-0.6-1.6-1.1-2.2c-0.5-0.6-1.3-1.3-2.4-2L383.3,50.8 M392.6,80.4c0.7,0,1.3-0.1,2-0.2
				c3.1-0.8,5.4-2.5,7.1-5.4c0.9-1.5,1.4-3.1,1.6-4.7c0.2-1.7,0-3.2-0.5-4.7c-0.4-1.1-1.1-2.1-2.1-3c-1-0.9-2.5-1.9-4.5-3.1
				l-1.2-0.7l-10.6,18.4l1.1,0.6c2.4,1.4,4.1,2.2,5.3,2.5C391.4,80.4,392,80.4,392.6,80.4 M383.1,49.9l-0.3,0.5l-0.4,0.7l-0.3,0.5
				l0.5,0.3c1,0.6,1.8,1.3,2.3,1.9c0.5,0.6,0.8,1.2,1,2c0.2,0.9,0.2,1.8-0.1,2.7c-0.3,1-1,2.5-2.1,4.4l-12.1,21
				c-1.1,1.9-2,3.3-2.7,4c-0.7,0.7-1.4,1.2-2.3,1.4c-0.5,0.1-1,0.2-1.5,0.2c-0.2,0-0.5,0-0.8-0.1c-0.8-0.1-1.7-0.5-2.8-1l-0.5-0.3
				l-0.3,0.5l-0.4,0.7l-0.3,0.5l0.5,0.3l18.2,10.5l0.5,0.3l0.3-0.5l0.4-0.7l0.3-0.5l-0.5-0.3c-1-0.7-1.8-1.3-2.3-1.9
				c-0.5-0.6-0.8-1.2-1-2c-0.2-0.8-0.2-1.7,0.1-2.7c0.3-1,1-2.5,2.1-4.4l5.5-9.6l0.9,0.5c0.8,0.5,1.4,0.9,1.9,1.4
				c0.4,0.4,0.8,1,1.1,1.6c0.5,1.3,0.8,3.2,0.8,5.9c0,2.8-0.2,5.9-0.5,9.2l-0.6,5.7c0,0.4-0.1,1.2-0.2,2.5l0,0.4l0.3,0.2l9.5,5.4
				l0.5,0.3l0.3-0.5l0.4-0.7l0.3-0.5l-0.5-0.3c-0.7-0.5-1.1-0.9-1.4-1.3c-0.3-0.4-0.5-1-0.6-1.8c-0.2-1-0.2-2.6-0.2-4.6
				c0.1-2.1,0.2-5.3,0.5-9.8c0.2-2,0.2-3.3,0.2-4.2c0-0.9-0.1-1.7-0.4-2.4c-0.2-0.5-0.4-1.1-0.8-1.7c0.9,0.2,1.6,0.4,2.3,0.5
				c0.5,0.1,1,0.1,1.5,0.1c0.6,0,1.1,0,1.7-0.1c3.5-0.5,6.1-2.4,7.9-5.5c1.2-2.1,1.7-4.3,1.5-6.5c-0.2-2.2-1-4.3-2.6-6.3
				c-1.3-1.7-3.5-3.5-6.4-5.3c-0.7-0.5-2.3-1.3-4.5-2.6l-13.7-7.9L383.1,49.9L383.1,49.9z M385.3,76.8l9.9-17.3l0.6,0.4
				c2,1.1,3.5,2.2,4.4,3c0.9,0.8,1.5,1.8,1.9,2.8c0.5,1.3,0.7,2.8,0.5,4.4c-0.2,1.6-0.7,3.1-1.5,4.5c-1.5,2.7-3.7,4.3-6.7,5.1
				c-0.7,0.2-1.3,0.2-1.9,0.2c-0.6,0-1.1-0.1-1.6-0.2c-1.1-0.3-2.8-1.1-5.1-2.4L385.3,76.8L385.3,76.8z"/>
		</g>
	</g>
	<g>
		<g>
			<g>
				<path fill="#414042" d="M135.9,490.8c-2.7-0.1-5.4-0.9-8-2.6c-2.4-1.5-4.4-3.5-6-5.8c-0.8-1.1-1.3-1.9-1.5-2.1
					c-0.1-0.2-0.4-0.4-0.6-0.5c-0.3-0.2-0.7-0.3-1-0.3c-0.4,0-0.8,0.2-1.3,0.5l-0.2,0.1l-1.1-0.7l7.7-11.8l1.1,0.7l-0.1,0.2
					c-1.1,3.3-1.6,6.2-1.6,8.5c0,4.2,1.5,7.3,4.4,9.1c1.4,0.9,2.9,1.4,4.4,1.4c0.6,0,1.2-0.1,1.9-0.2c2.2-0.5,4-1.8,5.3-3.9
					c0.6-0.9,1-1.9,1.3-3.1c0.3-1.1,0.4-2.2,0.4-3.2c-0.1-1-0.4-2.2-0.9-3.4c-0.5-1.3-1.5-3-2.8-5.3c-1.2-2-2-3.6-2.6-4.8
					c-0.5-1.2-0.9-2.3-1.1-3.3c-0.5-2.8,0.1-5.5,1.7-8c1-1.5,2.3-2.9,3.8-3.9s3.2-1.7,5-2c0.8-0.1,1.6-0.2,2.3-0.2
					c2.3,0,4.4,0.7,6.5,2c0.9,0.6,1.6,1.2,2.3,1.8c0.6,0.7,1.4,1.6,2.3,2.9c0.7,0.9,1.1,1.6,1.4,1.9c0.3,0.3,0.5,0.5,0.7,0.7
					c0.2,0.1,0.3,0.2,0.5,0.2c0.4,0,0.8-0.2,1.3-0.7l0.2-0.2l1.1,0.7l-7.1,11.5l-1.1-0.7l0.1-0.2c0.6-2.1,1-3.6,1.3-4.8
					c0.2-1.1,0.4-2.2,0.4-3.3c0-1.9-0.3-3.6-0.9-4.9c-0.6-1.3-1.6-2.4-2.9-3.3c-1.3-0.8-2.6-1.3-4-1.3c-0.7,0-1.3,0.1-2,0.3
					c-0.8,0.2-1.6,0.6-2.3,1.2c-0.7,0.6-1.4,1.2-1.8,2c-1.9,2.9-1.5,6.6,1.2,10.8l2.7,4.3c2.1,3.3,3.3,6.3,3.5,8.9
					c0.3,2.9-0.4,5.7-2.1,8.3c-1.1,1.7-2.5,3.1-4.2,4.3c-2.3,1.5-4.8,2.3-7.4,2.2L135.9,490.8z"/>
				<path fill="#414042" d="M146.6,446.6c2.2,0,4.3,0.7,6.3,1.9c0.9,0.6,1.6,1.1,2.2,1.8c0.6,0.6,1.4,1.6,2.3,2.9
					c0.7,1,1.2,1.6,1.4,1.9c0.3,0.3,0.5,0.5,0.8,0.7c0.2,0.1,0.4,0.2,0.7,0.2c0.5,0,1-0.3,1.5-0.8l0.6,0.4l-6.8,11l-0.6-0.4
					c0.6-2,1-3.6,1.3-4.8c0.2-1.1,0.4-2.3,0.4-3.4c0-2-0.3-3.7-0.9-5.1c-0.6-1.4-1.7-2.5-3.1-3.4c-1.4-0.9-2.7-1.3-4.1-1.3
					c-0.7,0-1.4,0.1-2.1,0.3c-0.9,0.3-1.7,0.7-2.4,1.3c-0.8,0.6-1.4,1.3-1.9,2c-2,3.1-1.6,6.8,1.2,11.1l2.7,4.3
					c2.1,3.3,3.2,6.2,3.4,8.8c0.3,2.9-0.4,5.6-2,8.1c-1.1,1.7-2.4,3.1-4.1,4.2c-2.2,1.5-4.6,2.2-7.2,2.2c-0.1,0-0.2,0-0.2,0
					c-2.6-0.1-5.2-0.9-7.8-2.6c-2.4-1.5-4.3-3.4-5.9-5.8c-0.8-1.2-1.3-1.9-1.5-2.1c-0.2-0.2-0.4-0.4-0.7-0.6
					c-0.4-0.3-0.8-0.4-1.2-0.4c-0.5,0-1,0.2-1.5,0.5l-0.6-0.4L124,468l0.6,0.4c-1.1,3.4-1.6,6.2-1.6,8.6c0,4.3,1.6,7.5,4.6,9.4
					c1.5,1,3,1.4,4.6,1.5c0.6,0,1.3-0.1,1.9-0.2c2.3-0.5,4.1-1.9,5.5-4c0.6-0.9,1.1-2,1.4-3.1c0.3-1.2,0.4-2.3,0.4-3.3
					c-0.1-1.1-0.4-2.2-0.9-3.5c-0.5-1.3-1.5-3-2.8-5.3c-1.2-2-2-3.6-2.6-4.8c-0.5-1.2-0.9-2.3-1.1-3.3c-0.5-2.7,0.1-5.3,1.7-7.8
					c1-1.5,2.2-2.8,3.7-3.8c1.5-1,3.1-1.7,4.9-2C145.1,446.6,145.9,446.6,146.6,446.6 M146.6,446c-0.8,0-1.6,0.1-2.4,0.2
					c-1.8,0.3-3.5,1-5.1,2.1c-1.6,1.1-2.9,2.4-3.9,4c-1.7,2.6-2.2,5.4-1.8,8.2c0.2,1,0.5,2.2,1.1,3.4c0.5,1.2,1.4,2.8,2.6,4.8
					c1.3,2.2,2.2,4,2.8,5.2c0.5,1.2,0.8,2.3,0.9,3.3c0.1,0.9-0.1,2-0.4,3.1c-0.3,1.1-0.7,2.1-1.3,3c-1.3,2-3,3.3-5.1,3.8
					c-0.6,0.1-1.2,0.2-1.8,0.2c-1.5,0-2.9-0.5-4.3-1.4c-2.9-1.8-4.3-4.7-4.3-8.9c0-2.3,0.5-5.1,1.6-8.4l0.1-0.4l-0.4-0.3l-0.6-0.4
					l-0.5-0.4l-0.3,0.5l-7.3,11.3l-0.3,0.5l0.5,0.3l0.6,0.4l0.4,0.2l0.3-0.3c0.4-0.3,0.7-0.4,1.1-0.4c0.3,0,0.6,0.1,0.9,0.3
					c0.2,0.1,0.4,0.3,0.5,0.5c0.1,0.1,0.4,0.5,1.4,2.1c1.6,2.4,3.7,4.4,6.1,5.9c2.7,1.7,5.4,2.6,8.1,2.7l0.2,0
					c2.7,0,5.2-0.8,7.5-2.3c1.7-1.1,3.2-2.6,4.3-4.3c1.7-2.6,2.4-5.5,2.1-8.5c-0.2-2.6-1.4-5.7-3.5-9l-2.7-4.3
					c-2.6-4.2-3-7.6-1.2-10.5c0.5-0.7,1-1.3,1.8-1.9c0.7-0.5,1.5-0.9,2.2-1.2c0.6-0.2,1.3-0.3,1.9-0.3c1.3,0,2.5,0.4,3.8,1.2
					c1.3,0.8,2.2,1.9,2.8,3.2c0.6,1.3,0.9,2.9,0.9,4.8c0,1.1-0.1,2.2-0.4,3.3c-0.2,1.1-0.6,2.7-1.3,4.7l-0.1,0.4l0.4,0.3l0.6,0.4
					l0.5,0.3l0.3-0.5l6.8-11l0.3-0.5l-0.5-0.3l-0.6-0.4l-0.4-0.3l-0.4,0.3c-0.4,0.4-0.8,0.6-1.1,0.6c-0.1,0-0.2,0-0.3-0.1
					c-0.2-0.1-0.4-0.3-0.6-0.6c-0.2-0.3-0.7-0.9-1.4-1.8c-0.9-1.3-1.7-2.3-2.3-3c-0.7-0.7-1.4-1.3-2.3-1.9
					C151.2,446.6,148.9,446,146.6,446L146.6,446z"/>
			</g>
			<g>
				<path fill="#414042" d="M179.7,512.3l0.4-1.3l0.3,0.1c1,0.2,1.8,0.4,2.5,0.4c0.1,0,0.3,0,0.4,0c0.8,0,1.5-0.3,2.2-0.7
					c0.8-0.4,1.4-1.1,2-2c0.5-0.9,1.1-2.5,1.7-4.6l9.3-31.5c-1.2-0.3-2.5-0.7-3.9-1c-2.6-0.6-4.7-0.9-6.3-0.9c-0.4,0-0.8,0-1.2,0.1
					c-1.7,0.2-3.3,0.9-4.7,2.1c-1.3,1.1-2.6,2.9-3.8,5.2l-0.1,0.2l-1.2-0.5l4.1-11.9l42.8,12.6l-3,12.3l-1.3-0.3l0-0.3
					c0.3-3,0-5.4-0.7-7.2c-0.7-1.8-2.1-3.3-4.2-4.6c-1.7-1.1-4.8-2.3-9.2-3.6l-9.3,31.5c-0.6,2.1-1,3.7-1,4.8c-0.1,1,0.1,2,0.5,2.8
					c0.4,0.7,0.9,1.3,1.5,1.8c0.6,0.5,1.5,0.9,2.7,1.3l0.3,0.1l-0.4,1.3L179.7,512.3z"/>
				<path fill="#414042" d="M181.6,466.2l42.2,12.4l-2.8,11.7l-0.7-0.1c0.3-3.1,0-5.5-0.7-7.3c-0.8-1.8-2.2-3.4-4.3-4.7
					c-1.8-1.1-5-2.4-9.6-3.7l-9.3,31.8c-0.6,2.1-1,3.7-1,4.8c-0.1,1.1,0.1,2.1,0.6,2.9c0.4,0.8,0.9,1.4,1.6,1.9
					c0.7,0.5,1.6,0.9,2.7,1.3l-0.2,0.7l-19.9-5.8l0.2-0.7c1,0.2,1.9,0.4,2.6,0.4c0.2,0,0.3,0,0.4,0c0.8-0.1,1.6-0.3,2.4-0.7
					c0.8-0.5,1.5-1.2,2.1-2.1c0.5-0.9,1.1-2.5,1.7-4.6l9.3-31.8c-1.3-0.4-2.7-0.8-4.2-1.1c-2.6-0.6-4.7-0.9-6.3-0.9
					c-0.4,0-0.8,0-1.2,0.1c-1.8,0.2-3.4,0.9-4.9,2.2c-1.4,1.2-2.7,2.9-3.9,5.3l-0.7-0.3L181.6,466.2 M181.2,465.5L181,466l-3.9,11.4
					l-0.2,0.6l0.6,0.2l0.7,0.3l0.5,0.2l0.3-0.5c1.2-2.3,2.5-4,3.7-5.1c1.4-1.2,2.9-1.9,4.5-2.1c0.3,0,0.7-0.1,1.1-0.1
					c1.6,0,3.7,0.3,6.2,0.9c1.3,0.3,2.5,0.6,3.6,0.9l-9.2,31.2c-0.6,2.1-1.2,3.6-1.7,4.5c-0.5,0.8-1.1,1.5-1.8,1.9
					c-0.7,0.4-1.4,0.6-2.1,0.6c-0.1,0-0.3,0-0.4,0c-0.7,0-1.5-0.1-2.5-0.4l-0.6-0.1l-0.2,0.6l-0.2,0.7l-0.2,0.6l0.6,0.2l19.9,5.8
					l0.6,0.2l0.2-0.6l0.2-0.7l0.2-0.6l-0.6-0.2c-1.1-0.4-2-0.8-2.6-1.3c-0.6-0.4-1.1-1-1.4-1.7c-0.4-0.8-0.6-1.6-0.5-2.6
					c0.1-1,0.4-2.6,1-4.7l9.2-31.2c4.2,1.3,7.2,2.4,8.8,3.5c2,1.2,3.3,2.7,4.1,4.4c0.7,1.7,0.9,4.1,0.7,7.1l-0.1,0.6l0.5,0.1
					l0.7,0.1l0.6,0.1l0.1-0.6l2.8-11.7l0.1-0.6L224,478l-42.2-12.4L181.2,465.5L181.2,465.5z"/>
			</g>
			<g>
				<path fill="#414042" d="M239.8,524.2l0.3,0c1.1-0.1,2.1-0.4,2.9-0.9c0.8-0.5,1.6-1.3,2.4-2.4c0.7-0.9,1.3-2,1.9-3.4
					c0.6-1.4,1.4-3.5,2.5-6.3L261,480l2.3-0.1l15.1,34c1.1,2.6,2,4.4,2.7,5.4c0.6,1,1.3,1.8,2,2.4c0.5,0.4,1.1,0.6,1.7,0.8
					c0.7,0.2,1.7,0.3,3,0.5l0.3,0l0,1.3l-22,0.5l0-1.3l0.3,0c1.9-0.2,3.2-0.6,3.9-1c1.2-0.8,1.8-1.9,1.8-3.3c0-0.8-0.3-2-1-3.4
					l-3.8-8.8l-13.9,0.3l-1.5,4.3l-0.8,2c-0.9,2.4-1.3,4.2-1.3,5.5c0,0.7,0.2,1.4,0.6,2.1c0.3,0.6,0.8,1.2,1.4,1.5
					c0.8,0.5,1.9,0.8,3.1,0.9l0.3,0l0,1.3l-15.2,0.4L239.8,524.2z M253.9,505.4l12.4-0.3l-6.8-15.5L253.9,505.4z"/>
				<path fill="#414042" d="M263,480.3l15,33.8c1.1,2.6,2,4.4,2.7,5.5c0.7,1.1,1.4,1.9,2.1,2.5c0.5,0.4,1.1,0.7,1.8,0.9
					c0.7,0.2,1.7,0.3,3,0.5l0,0.7l-21.4,0.5l0-0.8c1.9-0.2,3.3-0.6,4-1.1c1.3-0.9,2-2.1,1.9-3.6c0-0.9-0.4-2.1-1-3.6l-0.6-1.4
					l-3.3-7.6l-14.3,0.4l-1.6,4.5l-0.8,2c-0.9,2.4-1.4,4.3-1.3,5.7c0,0.8,0.2,1.5,0.6,2.2c0.4,0.7,0.9,1.2,1.5,1.7
					c0.9,0.6,2,0.9,3.3,1l0,0.7l-14.6,0.4l0-0.7c1.1-0.1,2.1-0.4,3-0.9c0.9-0.5,1.7-1.3,2.5-2.5c0.7-0.9,1.3-2.1,1.9-3.5
					c0.6-1.4,1.4-3.5,2.5-6.4l11.1-31L263,480.3 M253.5,505.7l13.3-0.3l-7.2-16.7L253.5,505.7 M263.4,479.7l-0.4,0l-1.9,0l-0.4,0
					l-0.1,0.4l-11.1,31c-1,2.8-1.8,4.9-2.4,6.3c-0.6,1.4-1.2,2.5-1.9,3.4c-0.8,1.1-1.5,1.8-2.3,2.3c-0.8,0.5-1.7,0.7-2.7,0.8l-0.6,0
					l0,0.6l0,0.7l0,0.6l0.6,0l14.6-0.4l0.6,0l0-0.6l0-0.7l0-0.6l-0.6,0c-1.2-0.1-2.2-0.4-3-0.9c-0.5-0.4-1-0.8-1.3-1.4
					c-0.3-0.6-0.5-1.3-0.5-1.9c0-1.3,0.4-3.1,1.3-5.4l0.8-2l1.4-4.1l13.5-0.3l3.1,7.2l0.6,1.3c0.6,1.4,0.9,2.5,0.9,3.3
					c0,1.3-0.5,2.3-1.7,3c-0.7,0.4-1.9,0.8-3.7,1l-0.6,0.1l0,0.6l0,0.8l0,0.6l0.6,0l21.4-0.5l0.6,0l0-0.6l0-0.7l0-0.6l-0.5,0
					c-1.3-0.1-2.3-0.3-2.9-0.4c-0.6-0.2-1.2-0.4-1.6-0.8c-0.7-0.5-1.3-1.3-1.9-2.3c-0.6-1.1-1.5-2.9-2.6-5.4l-15-33.8L263.4,479.7
					L263.4,479.7z M254.4,505.1l5.2-14.7l6.3,14.4L254.4,505.1L254.4,505.1z"/>
			</g>
			<g>
				<path fill="#414042" d="M315.9,517.4l0.3-0.1c2-0.7,3.3-1.7,4-3.2c0.4-0.8,0.5-1.7,0.4-2.8c-0.1-1.1-0.5-2.7-1.2-4.7l-7.6-22.7
					c-0.7-2.1-1.4-3.7-2-4.6c-0.6-0.9-1.3-1.6-2.2-2c-0.7-0.3-1.5-0.5-2.2-0.5c0,0,0,0,0,0c-0.8,0-1.7,0.2-2.8,0.5l-0.3,0.1
					l-0.4-1.3l20.3-6.8l0.4,1.3l-0.3,0.1c-1.1,0.4-1.9,0.9-2.6,1.3c-0.6,0.5-1.1,1-1.4,1.7c-0.4,0.9-0.6,1.8-0.5,2.9
					c0.1,1.1,0.5,2.7,1.2,4.8l5.9,17.8c0.9,2.8,1.7,4.7,2.2,6c0.6,1.3,1.2,2.2,1.9,2.9c1.2,1.2,2.5,1.9,4.1,2.1c0.3,0,0.7,0.1,1,0.1
					c1.4,0,3-0.3,4.8-0.9c2.4-0.8,4.3-1.8,5.8-3c1.4-1.2,2.4-2.6,3-4.2c0.4-1.1,0.6-2.4,0.7-3.7c0.1-1.3,0-3-0.3-5l0-0.3l1.3-0.3
					l4,13.4l-37.4,12.5L315.9,517.4z"/>
				<path fill="#414042" d="M322.2,469.6l0.2,0.7c-1.1,0.4-2,0.9-2.6,1.4c-0.6,0.5-1.1,1.1-1.5,1.8c-0.5,0.9-0.7,1.9-0.6,3
					c0.1,1.1,0.5,2.7,1.2,4.9l5.9,17.8c0.9,2.7,1.7,4.8,2.3,6c0.6,1.3,1.2,2.3,1.9,3c1.2,1.2,2.6,2,4.3,2.2c0.3,0,0.7,0.1,1.1,0.1
					c1.4,0,3.1-0.3,4.9-0.9c2.4-0.8,4.4-1.8,5.9-3c1.5-1.2,2.5-2.7,3.1-4.4c0.4-1.2,0.7-2.4,0.7-3.7c0.1-1.3,0-3-0.3-5.1l0.8-0.2
					l3.8,12.8l-36.9,12.3l-0.2-0.7c2.1-0.7,3.5-1.8,4.2-3.4c0.4-0.9,0.6-1.9,0.5-3c-0.1-1.1-0.5-2.7-1.2-4.8l-7.6-22.7
					c-0.7-2.2-1.4-3.7-2-4.7c-0.6-1-1.4-1.6-2.3-2.1c-0.8-0.3-1.5-0.5-2.3-0.5c0,0,0,0-0.1,0c-0.8,0-1.7,0.2-2.8,0.5l-0.2-0.7
					L322.2,469.6 M322.6,468.8L322,469l-19.7,6.6l-0.6,0.2l0.2,0.6l0.2,0.7l0.2,0.6l0.6-0.2c1-0.3,1.9-0.5,2.6-0.5
					c0.7,0,1.4,0.2,2.1,0.5c0.8,0.4,1.5,1,2,1.8c0.6,0.9,1.2,2.4,1.9,4.6l7.6,22.7c0.7,2,1.1,3.6,1.2,4.7c0.1,1-0.1,1.9-0.4,2.6
					c-0.7,1.4-1.9,2.4-3.9,3l-0.6,0.2l0.2,0.6l0.2,0.7l0.2,0.6l0.6-0.2l36.9-12.3l0.6-0.2l-0.2-0.6l-3.8-12.8l-0.2-0.6l-0.6,0.1
					l-0.8,0.2l-0.5,0.1l0.1,0.5c0.2,2,0.3,3.7,0.3,4.9c-0.1,1.3-0.3,2.5-0.7,3.6c-0.6,1.6-1.6,3-2.9,4.1c-1.4,1.2-3.3,2.1-5.7,2.9
					c-1.8,0.6-3.4,0.9-4.7,0.9c-0.3,0-0.7,0-1-0.1c-1.5-0.2-2.8-0.9-3.9-2c-0.6-0.7-1.2-1.6-1.8-2.8c-0.6-1.3-1.3-3.3-2.2-6
					l-5.9-17.8c-0.7-2.1-1.1-3.7-1.2-4.8c-0.1-1,0.1-1.9,0.5-2.7c0.3-0.6,0.8-1.2,1.3-1.6c0.6-0.4,1.4-0.9,2.5-1.3l0.5-0.2l-0.2-0.6
					l-0.2-0.7L322.6,468.8L322.6,468.8z"/>
			</g>
			<g>
				<path fill="#414042" d="M379.2,491.7l0.3-0.2c1.7-1.2,2.7-2.6,3-4.2c0.1-0.9,0-1.8-0.4-2.8c-0.4-1-1.2-2.4-2.5-4.2l-13.7-19.7
					c-1.3-1.9-2.4-3.2-3.2-3.9c-0.8-0.7-1.7-1.1-2.6-1.3c-0.3,0-0.5-0.1-0.8-0.1c-0.5,0-1,0.1-1.5,0.2c-0.7,0.2-1.6,0.6-2.5,1.2
					L355,457l-0.8-1.1l17.6-12.2l0.8,1.1l-0.2,0.2c-0.9,0.7-1.6,1.4-2.1,2c-0.4,0.6-0.7,1.3-0.9,2c-0.2,0.9-0.1,1.9,0.3,2.9
					c0.4,1,1.3,2.5,2.5,4.3l10.7,15.4c1.7,2.4,2.9,4.1,3.9,5.1c0.9,1,1.8,1.8,2.6,2.3c1.1,0.6,2.2,0.9,3.4,0.9c0.4,0,0.8,0,1.1-0.1
					c1.6-0.2,3.4-1.1,5.4-2.5c2.1-1.4,3.7-3,4.7-4.5c1-1.5,1.6-3.2,1.7-4.9c0.1-1.2-0.1-2.4-0.4-3.7c-0.3-1.3-0.9-2.9-1.7-4.7
					l-0.1-0.3l1.2-0.7l7.6,11.7L380,492.9L379.2,491.7z"/>
				<path fill="#414042" d="M371.8,444.1l0.4,0.6c-0.9,0.7-1.7,1.4-2.1,2.1c-0.5,0.6-0.8,1.4-0.9,2.2c-0.2,1-0.1,2,0.3,3.1
					c0.4,1,1.3,2.5,2.6,4.4l10.7,15.4c1.7,2.4,2.9,4.1,3.9,5.2c0.9,1.1,1.8,1.8,2.7,2.3c1.1,0.6,2.3,1,3.5,1c0.4,0,0.8,0,1.2-0.1
					c1.6-0.3,3.5-1.1,5.5-2.5c2.1-1.5,3.7-3,4.8-4.6c1.1-1.6,1.6-3.3,1.7-5.1c0.1-1.2-0.1-2.5-0.4-3.8c-0.3-1.3-0.9-2.9-1.7-4.8
					l0.7-0.4l7.3,11.2l-31.9,22.2l-0.4-0.6c1.8-1.3,2.8-2.7,3.1-4.4c0.2-1,0-1.9-0.4-3c-0.4-1-1.2-2.4-2.5-4.3l-13.7-19.7
					c-1.3-1.9-2.4-3.2-3.2-3.9c-0.8-0.7-1.8-1.2-2.8-1.3c-0.3,0-0.5-0.1-0.8-0.1c-0.5,0-1.1,0.1-1.6,0.2c-0.8,0.2-1.6,0.6-2.6,1.3
					l-0.4-0.6L371.8,444.1 M371.9,443.3l-0.5,0.4l-17.1,11.9l-0.5,0.4l0.4,0.5l0.4,0.6l0.3,0.5l0.5-0.3c0.9-0.6,1.8-1,2.5-1.2
					c0.4-0.1,0.9-0.2,1.4-0.2c0.2,0,0.5,0,0.7,0.1c0.9,0.1,1.7,0.5,2.5,1.2c0.8,0.7,1.9,2,3.1,3.8l13.7,19.7
					c1.2,1.8,2.1,3.2,2.4,4.1c0.4,0.9,0.5,1.8,0.3,2.6c-0.2,1.5-1.2,2.9-2.8,4l-0.5,0.4l0.4,0.5l0.4,0.6l0.4,0.5l0.5-0.4l31.9-22.2
					l0.5-0.3l-0.3-0.5l-7.3-11.2l-0.3-0.5l-0.5,0.3l-0.7,0.4l-0.5,0.3l0.2,0.5c0.8,1.8,1.4,3.4,1.6,4.7c0.3,1.2,0.4,2.4,0.3,3.6
					c-0.1,1.7-0.7,3.3-1.6,4.8c-1,1.5-2.6,3-4.6,4.4c-1.9,1.4-3.7,2.2-5.3,2.4c-0.4,0.1-0.7,0.1-1.1,0.1c-1.1,0-2.2-0.3-3.3-0.9
					c-0.8-0.4-1.6-1.2-2.5-2.2c-0.9-1.1-2.2-2.7-3.8-5.1l-10.7-15.4c-1.3-1.8-2.1-3.2-2.5-4.2c-0.4-0.9-0.5-1.8-0.3-2.7
					c0.1-0.7,0.4-1.3,0.8-1.9c0.4-0.6,1.1-1.3,2-2l0.5-0.4l-0.3-0.5l-0.4-0.6L371.9,443.3L371.9,443.3z"/>
			</g>
		</g>
		<g>
			<g>
				<g>
					<path fill="#414042" d="M135.9,490.8c-2.7-0.1-5.4-0.9-8-2.6c-2.4-1.5-4.4-3.5-6-5.8c-0.8-1.1-1.3-1.9-1.5-2.1
						c-0.1-0.2-0.4-0.4-0.6-0.5c-0.3-0.2-0.7-0.3-1-0.3c-0.4,0-0.8,0.2-1.3,0.5l-0.2,0.1l-1.1-0.7l7.7-11.8l1.1,0.7l-0.1,0.2
						c-1.1,3.3-1.6,6.2-1.6,8.5c0,4.2,1.5,7.3,4.4,9.1c1.4,0.9,2.9,1.4,4.4,1.4c0.6,0,1.2-0.1,1.9-0.2c2.2-0.5,4-1.8,5.3-3.9
						c0.6-0.9,1-1.9,1.3-3.1c0.3-1.1,0.4-2.2,0.4-3.2c-0.1-1-0.4-2.2-0.9-3.4c-0.5-1.3-1.5-3-2.8-5.3c-1.2-2-2-3.6-2.6-4.8
						c-0.5-1.2-0.9-2.3-1.1-3.3c-0.5-2.8,0.1-5.5,1.7-8c1-1.5,2.3-2.9,3.8-3.9s3.2-1.7,5-2c0.8-0.1,1.6-0.2,2.3-0.2
						c2.3,0,4.4,0.7,6.5,2c0.9,0.6,1.6,1.2,2.3,1.8c0.6,0.7,1.4,1.6,2.3,2.9c0.7,0.9,1.1,1.6,1.4,1.9c0.3,0.3,0.5,0.5,0.7,0.7
						c0.2,0.1,0.3,0.2,0.5,0.2c0.4,0,0.8-0.2,1.3-0.7l0.2-0.2l1.1,0.7l-7.1,11.5l-1.1-0.7l0.1-0.2c0.6-2.1,1-3.6,1.3-4.8
						c0.2-1.1,0.4-2.2,0.4-3.3c0-1.9-0.3-3.6-0.9-4.9c-0.6-1.3-1.6-2.4-2.9-3.3c-1.3-0.8-2.6-1.3-4-1.3c-0.7,0-1.3,0.1-2,0.3
						c-0.8,0.2-1.6,0.6-2.3,1.2c-0.7,0.6-1.4,1.2-1.8,2c-1.9,2.9-1.5,6.6,1.2,10.8l2.7,4.3c2.1,3.3,3.3,6.3,3.5,8.9
						c0.3,2.9-0.4,5.7-2.1,8.3c-1.1,1.7-2.5,3.1-4.2,4.3c-2.3,1.5-4.8,2.3-7.4,2.2L135.9,490.8z"/>
					<path fill="#414042" d="M146.6,446.6c2.2,0,4.3,0.7,6.3,1.9c0.9,0.6,1.6,1.1,2.2,1.8c0.6,0.6,1.4,1.6,2.3,2.9
						c0.7,1,1.2,1.6,1.4,1.9c0.3,0.3,0.5,0.5,0.8,0.7c0.2,0.1,0.4,0.2,0.7,0.2c0.5,0,1-0.3,1.5-0.8l0.6,0.4l-6.8,11l-0.6-0.4
						c0.6-2,1-3.6,1.3-4.8c0.2-1.1,0.4-2.3,0.4-3.4c0-2-0.3-3.7-0.9-5.1c-0.6-1.4-1.7-2.5-3.1-3.4c-1.4-0.9-2.7-1.3-4.1-1.3
						c-0.7,0-1.4,0.1-2.1,0.3c-0.9,0.3-1.7,0.7-2.4,1.3c-0.8,0.6-1.4,1.3-1.9,2c-2,3.1-1.6,6.8,1.2,11.1l2.7,4.3
						c2.1,3.3,3.2,6.2,3.4,8.8c0.3,2.9-0.4,5.6-2,8.1c-1.1,1.7-2.4,3.1-4.1,4.2c-2.2,1.5-4.6,2.2-7.2,2.2c-0.1,0-0.2,0-0.2,0
						c-2.6-0.1-5.2-0.9-7.8-2.6c-2.4-1.5-4.3-3.4-5.9-5.8c-0.8-1.2-1.3-1.9-1.5-2.1c-0.2-0.2-0.4-0.4-0.7-0.6
						c-0.4-0.3-0.8-0.4-1.2-0.4c-0.5,0-1,0.2-1.5,0.5l-0.6-0.4L124,468l0.6,0.4c-1.1,3.4-1.6,6.2-1.6,8.6c0,4.3,1.6,7.5,4.6,9.4
						c1.5,1,3,1.4,4.6,1.5c0.6,0,1.3-0.1,1.9-0.2c2.3-0.5,4.1-1.9,5.5-4c0.6-0.9,1.1-2,1.4-3.1c0.3-1.2,0.4-2.3,0.4-3.3
						c-0.1-1.1-0.4-2.2-0.9-3.5c-0.5-1.3-1.5-3-2.8-5.3c-1.2-2-2-3.6-2.6-4.8c-0.5-1.2-0.9-2.3-1.1-3.3c-0.5-2.7,0.1-5.3,1.7-7.8
						c1-1.5,2.2-2.8,3.7-3.8c1.5-1,3.1-1.7,4.9-2C145.1,446.6,145.9,446.6,146.6,446.6 M146.6,446c-0.8,0-1.6,0.1-2.4,0.2
						c-1.8,0.3-3.5,1-5.1,2.1c-1.6,1.1-2.9,2.4-3.9,4c-1.7,2.6-2.2,5.4-1.8,8.2c0.2,1,0.5,2.2,1.1,3.4c0.5,1.2,1.4,2.8,2.6,4.8
						c1.3,2.2,2.2,4,2.8,5.2c0.5,1.2,0.8,2.3,0.9,3.3c0.1,0.9-0.1,2-0.4,3.1c-0.3,1.1-0.7,2.1-1.3,3c-1.3,2-3,3.3-5.1,3.8
						c-0.6,0.1-1.2,0.2-1.8,0.2c-1.5,0-2.9-0.5-4.3-1.4c-2.9-1.8-4.3-4.7-4.3-8.9c0-2.3,0.5-5.1,1.6-8.4l0.1-0.4l-0.4-0.3l-0.6-0.4
						l-0.5-0.4l-0.3,0.5l-7.3,11.3l-0.3,0.5l0.5,0.3l0.6,0.4l0.4,0.2l0.3-0.3c0.4-0.3,0.7-0.4,1.1-0.4c0.3,0,0.6,0.1,0.9,0.3
						c0.2,0.1,0.4,0.3,0.5,0.5c0.1,0.1,0.4,0.5,1.4,2.1c1.6,2.4,3.7,4.4,6.1,5.9c2.7,1.7,5.4,2.6,8.1,2.7l0.2,0
						c2.7,0,5.2-0.8,7.5-2.3c1.7-1.1,3.2-2.6,4.3-4.3c1.7-2.6,2.4-5.5,2.1-8.5c-0.2-2.6-1.4-5.7-3.5-9l-2.7-4.3
						c-2.6-4.2-3-7.6-1.2-10.5c0.5-0.7,1-1.3,1.8-1.9c0.7-0.5,1.5-0.9,2.2-1.2c0.6-0.2,1.3-0.3,1.9-0.3c1.3,0,2.5,0.4,3.8,1.2
						c1.3,0.8,2.2,1.9,2.8,3.2c0.6,1.3,0.9,2.9,0.9,4.8c0,1.1-0.1,2.2-0.4,3.3c-0.2,1.1-0.6,2.7-1.3,4.7l-0.1,0.4l0.4,0.3l0.6,0.4
						l0.5,0.3l0.3-0.5l6.8-11l0.3-0.5l-0.5-0.3l-0.6-0.4l-0.4-0.3l-0.4,0.3c-0.4,0.4-0.8,0.6-1.1,0.6c-0.1,0-0.2,0-0.3-0.1
						c-0.2-0.1-0.4-0.3-0.6-0.6c-0.2-0.3-0.7-0.9-1.4-1.8c-0.9-1.3-1.7-2.3-2.3-3c-0.7-0.7-1.4-1.3-2.3-1.9
						C151.2,446.6,148.9,446,146.6,446L146.6,446z"/>
				</g>
				<g>
					<path fill="#414042" d="M179.7,512.3l0.4-1.3l0.3,0.1c1,0.2,1.8,0.4,2.5,0.4c0.1,0,0.3,0,0.4,0c0.8,0,1.5-0.3,2.2-0.7
						c0.8-0.4,1.4-1.1,2-2c0.5-0.9,1.1-2.5,1.7-4.6l9.3-31.5c-1.2-0.3-2.5-0.7-3.9-1c-2.6-0.6-4.7-0.9-6.3-0.9c-0.4,0-0.8,0-1.2,0.1
						c-1.7,0.2-3.3,0.9-4.7,2.1c-1.3,1.1-2.6,2.9-3.8,5.2l-0.1,0.2l-1.2-0.5l4.1-11.9l42.8,12.6l-3,12.3l-1.3-0.3l0-0.3
						c0.3-3,0-5.4-0.7-7.2c-0.7-1.8-2.1-3.3-4.2-4.6c-1.7-1.1-4.8-2.3-9.2-3.6l-9.3,31.5c-0.6,2.1-1,3.7-1,4.8c-0.1,1,0.1,2,0.5,2.8
						c0.4,0.7,0.9,1.3,1.5,1.8c0.6,0.5,1.5,0.9,2.7,1.3l0.3,0.1l-0.4,1.3L179.7,512.3z"/>
					<path fill="#414042" d="M181.6,466.2l42.2,12.4l-2.8,11.7l-0.7-0.1c0.3-3.1,0-5.5-0.7-7.3c-0.8-1.8-2.2-3.4-4.3-4.7
						c-1.8-1.1-5-2.4-9.6-3.7l-9.3,31.8c-0.6,2.1-1,3.7-1,4.8c-0.1,1.1,0.1,2.1,0.6,2.9c0.4,0.8,0.9,1.4,1.6,1.9
						c0.7,0.5,1.6,0.9,2.7,1.3l-0.2,0.7l-19.9-5.8l0.2-0.7c1,0.2,1.9,0.4,2.6,0.4c0.2,0,0.3,0,0.4,0c0.8-0.1,1.6-0.3,2.4-0.7
						c0.8-0.5,1.5-1.2,2.1-2.1c0.5-0.9,1.1-2.5,1.7-4.6l9.3-31.8c-1.3-0.4-2.7-0.8-4.2-1.1c-2.6-0.6-4.7-0.9-6.3-0.9
						c-0.4,0-0.8,0-1.2,0.1c-1.8,0.2-3.4,0.9-4.9,2.2c-1.4,1.2-2.7,2.9-3.9,5.3l-0.7-0.3L181.6,466.2 M181.2,465.5L181,466
						l-3.9,11.4l-0.2,0.6l0.6,0.2l0.7,0.3l0.5,0.2l0.3-0.5c1.2-2.3,2.5-4,3.7-5.1c1.4-1.2,2.9-1.9,4.5-2.1c0.3,0,0.7-0.1,1.1-0.1
						c1.6,0,3.7,0.3,6.2,0.9c1.3,0.3,2.5,0.6,3.6,0.9l-9.2,31.2c-0.6,2.1-1.2,3.6-1.7,4.5c-0.5,0.8-1.1,1.5-1.8,1.9
						c-0.7,0.4-1.4,0.6-2.1,0.6c-0.1,0-0.3,0-0.4,0c-0.7,0-1.5-0.1-2.5-0.4l-0.6-0.1l-0.2,0.6l-0.2,0.7l-0.2,0.6l0.6,0.2l19.9,5.8
						l0.6,0.2l0.2-0.6l0.2-0.7l0.2-0.6l-0.6-0.2c-1.1-0.4-2-0.8-2.6-1.3c-0.6-0.4-1.1-1-1.4-1.7c-0.4-0.8-0.6-1.6-0.5-2.6
						c0.1-1,0.4-2.6,1-4.7l9.2-31.2c4.2,1.3,7.2,2.4,8.8,3.5c2,1.2,3.3,2.7,4.1,4.4c0.7,1.7,0.9,4.1,0.7,7.1l-0.1,0.6l0.5,0.1
						l0.7,0.1l0.6,0.1l0.1-0.6l2.8-11.7l0.1-0.6L224,478l-42.2-12.4L181.2,465.5L181.2,465.5z"/>
				</g>
				<g>
					<path fill="#414042" d="M239.8,524.2l0.3,0c1.1-0.1,2.1-0.4,2.9-0.9c0.8-0.5,1.6-1.3,2.4-2.4c0.7-0.9,1.3-2,1.9-3.4
						c0.6-1.4,1.4-3.5,2.5-6.3L261,480l2.3-0.1l15.1,34c1.1,2.6,2,4.4,2.7,5.4c0.6,1,1.3,1.8,2,2.4c0.5,0.4,1.1,0.6,1.7,0.8
						c0.7,0.2,1.7,0.3,3,0.5l0.3,0l0,1.3l-22,0.5l0-1.3l0.3,0c1.9-0.2,3.2-0.6,3.9-1c1.2-0.8,1.8-1.9,1.8-3.3c0-0.8-0.3-2-1-3.4
						l-3.8-8.8l-13.9,0.3l-1.5,4.3l-0.8,2c-0.9,2.4-1.3,4.2-1.3,5.5c0,0.7,0.2,1.4,0.6,2.1c0.3,0.6,0.8,1.2,1.4,1.5
						c0.8,0.5,1.9,0.8,3.1,0.9l0.3,0l0,1.3l-15.2,0.4L239.8,524.2z M253.9,505.4l12.4-0.3l-6.8-15.5L253.9,505.4z"/>
					<path fill="#414042" d="M263,480.3l15,33.8c1.1,2.6,2,4.4,2.7,5.5c0.7,1.1,1.4,1.9,2.1,2.5c0.5,0.4,1.1,0.7,1.8,0.9
						c0.7,0.2,1.7,0.3,3,0.5l0,0.7l-21.4,0.5l0-0.8c1.9-0.2,3.3-0.6,4-1.1c1.3-0.9,2-2.1,1.9-3.6c0-0.9-0.4-2.1-1-3.6l-0.6-1.4
						l-3.3-7.6l-14.3,0.4l-1.6,4.5l-0.8,2c-0.9,2.4-1.4,4.3-1.3,5.7c0,0.8,0.2,1.5,0.6,2.2c0.4,0.7,0.9,1.2,1.5,1.7
						c0.9,0.6,2,0.9,3.3,1l0,0.7l-14.6,0.4l0-0.7c1.1-0.1,2.1-0.4,3-0.9c0.9-0.5,1.7-1.3,2.5-2.5c0.7-0.9,1.3-2.1,1.9-3.5
						c0.6-1.4,1.4-3.5,2.5-6.4l11.1-31L263,480.3 M253.5,505.7l13.3-0.3l-7.2-16.7L253.5,505.7 M263.4,479.7l-0.4,0l-1.9,0l-0.4,0
						l-0.1,0.4l-11.1,31c-1,2.8-1.8,4.9-2.4,6.3c-0.6,1.4-1.2,2.5-1.9,3.4c-0.8,1.1-1.5,1.8-2.3,2.3c-0.8,0.5-1.7,0.7-2.7,0.8
						l-0.6,0l0,0.6l0,0.7l0,0.6l0.6,0l14.6-0.4l0.6,0l0-0.6l0-0.7l0-0.6l-0.6,0c-1.2-0.1-2.2-0.4-3-0.9c-0.5-0.4-1-0.8-1.3-1.4
						c-0.3-0.6-0.5-1.3-0.5-1.9c0-1.3,0.4-3.1,1.3-5.4l0.8-2l1.4-4.1l13.5-0.3l3.1,7.2l0.6,1.3c0.6,1.4,0.9,2.5,0.9,3.3
						c0,1.3-0.5,2.3-1.7,3c-0.7,0.4-1.9,0.8-3.7,1l-0.6,0.1l0,0.6l0,0.8l0,0.6l0.6,0l21.4-0.5l0.6,0l0-0.6l0-0.7l0-0.6l-0.5,0
						c-1.3-0.1-2.3-0.3-2.9-0.4c-0.6-0.2-1.2-0.4-1.6-0.8c-0.7-0.5-1.3-1.3-1.9-2.3c-0.6-1.1-1.5-2.9-2.6-5.4l-15-33.8L263.4,479.7
						L263.4,479.7z M254.4,505.1l5.2-14.7l6.3,14.4L254.4,505.1L254.4,505.1z"/>
				</g>
				<g>
					<path fill="#414042" d="M315.9,517.4l0.3-0.1c2-0.7,3.3-1.7,4-3.2c0.4-0.8,0.5-1.7,0.4-2.8c-0.1-1.1-0.5-2.7-1.2-4.7l-7.6-22.7
						c-0.7-2.1-1.4-3.7-2-4.6c-0.6-0.9-1.3-1.6-2.2-2c-0.7-0.3-1.5-0.5-2.2-0.5c0,0,0,0,0,0c-0.8,0-1.7,0.2-2.8,0.5l-0.3,0.1
						l-0.4-1.3l20.3-6.8l0.4,1.3l-0.3,0.1c-1.1,0.4-1.9,0.9-2.6,1.3c-0.6,0.5-1.1,1-1.4,1.7c-0.4,0.9-0.6,1.8-0.5,2.9
						c0.1,1.1,0.5,2.7,1.2,4.8l5.9,17.8c0.9,2.8,1.7,4.7,2.2,6c0.6,1.3,1.2,2.2,1.9,2.9c1.2,1.2,2.5,1.9,4.1,2.1
						c0.3,0,0.7,0.1,1,0.1c1.4,0,3-0.3,4.8-0.9c2.4-0.8,4.3-1.8,5.8-3c1.4-1.2,2.4-2.6,3-4.2c0.4-1.1,0.6-2.4,0.7-3.7
						c0.1-1.3,0-3-0.3-5l0-0.3l1.3-0.3l4,13.4l-37.4,12.5L315.9,517.4z"/>
					<path fill="#414042" d="M322.2,469.6l0.2,0.7c-1.1,0.4-2,0.9-2.6,1.4c-0.6,0.5-1.1,1.1-1.5,1.8c-0.5,0.9-0.7,1.9-0.6,3
						c0.1,1.1,0.5,2.7,1.2,4.9l5.9,17.8c0.9,2.7,1.7,4.8,2.3,6c0.6,1.3,1.2,2.3,1.9,3c1.2,1.2,2.6,2,4.3,2.2c0.3,0,0.7,0.1,1.1,0.1
						c1.4,0,3.1-0.3,4.9-0.9c2.4-0.8,4.4-1.8,5.9-3c1.5-1.2,2.5-2.7,3.1-4.4c0.4-1.2,0.7-2.4,0.7-3.7c0.1-1.3,0-3-0.3-5.1l0.8-0.2
						l3.8,12.8l-36.9,12.3l-0.2-0.7c2.1-0.7,3.5-1.8,4.2-3.4c0.4-0.9,0.6-1.9,0.5-3c-0.1-1.1-0.5-2.7-1.2-4.8l-7.6-22.7
						c-0.7-2.2-1.4-3.7-2-4.7c-0.6-1-1.4-1.6-2.3-2.1c-0.8-0.3-1.5-0.5-2.3-0.5c0,0,0,0-0.1,0c-0.8,0-1.7,0.2-2.8,0.5l-0.2-0.7
						L322.2,469.6 M322.6,468.8L322,469l-19.7,6.6l-0.6,0.2l0.2,0.6l0.2,0.7l0.2,0.6l0.6-0.2c1-0.3,1.9-0.5,2.6-0.5
						c0.7,0,1.4,0.2,2.1,0.5c0.8,0.4,1.5,1,2,1.8c0.6,0.9,1.2,2.4,1.9,4.6l7.6,22.7c0.7,2,1.1,3.6,1.2,4.7c0.1,1-0.1,1.9-0.4,2.6
						c-0.7,1.4-1.9,2.4-3.9,3l-0.6,0.2l0.2,0.6l0.2,0.7l0.2,0.6l0.6-0.2l36.9-12.3l0.6-0.2l-0.2-0.6l-3.8-12.8l-0.2-0.6l-0.6,0.1
						l-0.8,0.2l-0.5,0.1l0.1,0.5c0.2,2,0.3,3.7,0.3,4.9c-0.1,1.3-0.3,2.5-0.7,3.6c-0.6,1.6-1.6,3-2.9,4.1c-1.4,1.2-3.3,2.1-5.7,2.9
						c-1.8,0.6-3.4,0.9-4.7,0.9c-0.3,0-0.7,0-1-0.1c-1.5-0.2-2.8-0.9-3.9-2c-0.6-0.7-1.2-1.6-1.8-2.8c-0.6-1.3-1.3-3.3-2.2-6
						l-5.9-17.8c-0.7-2.1-1.1-3.7-1.2-4.8c-0.1-1,0.1-1.9,0.5-2.7c0.3-0.6,0.8-1.2,1.3-1.6c0.6-0.4,1.4-0.9,2.5-1.3l0.5-0.2
						l-0.2-0.6l-0.2-0.7L322.6,468.8L322.6,468.8z"/>
				</g>
				<g>
					<path fill="#414042" d="M379.2,491.7l0.3-0.2c1.7-1.2,2.7-2.6,3-4.2c0.1-0.9,0-1.8-0.4-2.8c-0.4-1-1.2-2.4-2.5-4.2l-13.7-19.7
						c-1.3-1.9-2.4-3.2-3.2-3.9c-0.8-0.7-1.7-1.1-2.6-1.3c-0.3,0-0.5-0.1-0.8-0.1c-0.5,0-1,0.1-1.5,0.2c-0.7,0.2-1.6,0.6-2.5,1.2
						L355,457l-0.8-1.1l17.6-12.2l0.8,1.1l-0.2,0.2c-0.9,0.7-1.6,1.4-2.1,2c-0.4,0.6-0.7,1.3-0.9,2c-0.2,0.9-0.1,1.9,0.3,2.9
						c0.4,1,1.3,2.5,2.5,4.3l10.7,15.4c1.7,2.4,2.9,4.1,3.9,5.1c0.9,1,1.8,1.8,2.6,2.3c1.1,0.6,2.2,0.9,3.4,0.9c0.4,0,0.8,0,1.1-0.1
						c1.6-0.2,3.4-1.1,5.4-2.5c2.1-1.4,3.7-3,4.7-4.5c1-1.5,1.6-3.2,1.7-4.9c0.1-1.2-0.1-2.4-0.4-3.7c-0.3-1.3-0.9-2.9-1.7-4.7
						l-0.1-0.3l1.2-0.7l7.6,11.7L380,492.9L379.2,491.7z"/>
					<path fill="#414042" d="M371.8,444.1l0.4,0.6c-0.9,0.7-1.7,1.4-2.1,2.1c-0.5,0.6-0.8,1.4-0.9,2.2c-0.2,1-0.1,2,0.3,3.1
						c0.4,1,1.3,2.5,2.6,4.4l10.7,15.4c1.7,2.4,2.9,4.1,3.9,5.2c0.9,1.1,1.8,1.8,2.7,2.3c1.1,0.6,2.3,1,3.5,1c0.4,0,0.8,0,1.2-0.1
						c1.6-0.3,3.5-1.1,5.5-2.5c2.1-1.5,3.7-3,4.8-4.6c1.1-1.6,1.6-3.3,1.7-5.1c0.1-1.2-0.1-2.5-0.4-3.8c-0.3-1.3-0.9-2.9-1.7-4.8
						l0.7-0.4l7.3,11.2l-31.9,22.2l-0.4-0.6c1.8-1.3,2.8-2.7,3.1-4.4c0.2-1,0-1.9-0.4-3c-0.4-1-1.2-2.4-2.5-4.3l-13.7-19.7
						c-1.3-1.9-2.4-3.2-3.2-3.9c-0.8-0.7-1.8-1.2-2.8-1.3c-0.3,0-0.5-0.1-0.8-0.1c-0.5,0-1.1,0.1-1.6,0.2c-0.8,0.2-1.6,0.6-2.6,1.3
						l-0.4-0.6L371.8,444.1 M371.9,443.3l-0.5,0.4l-17.1,11.9l-0.5,0.4l0.4,0.5l0.4,0.6l0.3,0.5l0.5-0.3c0.9-0.6,1.8-1,2.5-1.2
						c0.4-0.1,0.9-0.2,1.4-0.2c0.2,0,0.5,0,0.7,0.1c0.9,0.1,1.7,0.5,2.5,1.2c0.8,0.7,1.9,2,3.1,3.8l13.7,19.7
						c1.2,1.8,2.1,3.2,2.4,4.1c0.4,0.9,0.5,1.8,0.3,2.6c-0.2,1.5-1.2,2.9-2.8,4l-0.5,0.4l0.4,0.5l0.4,0.6l0.4,0.5l0.5-0.4l31.9-22.2
						l0.5-0.3l-0.3-0.5l-7.3-11.2l-0.3-0.5l-0.5,0.3l-0.7,0.4l-0.5,0.3l0.2,0.5c0.8,1.8,1.4,3.4,1.6,4.7c0.3,1.2,0.4,2.4,0.3,3.6
						c-0.1,1.7-0.7,3.3-1.6,4.8c-1,1.5-2.6,3-4.6,4.4c-1.9,1.4-3.7,2.2-5.3,2.4c-0.4,0.1-0.7,0.1-1.1,0.1c-1.1,0-2.2-0.3-3.3-0.9
						c-0.8-0.4-1.6-1.2-2.5-2.2c-0.9-1.1-2.2-2.7-3.8-5.1l-10.7-15.4c-1.3-1.8-2.1-3.2-2.5-4.2c-0.4-0.9-0.5-1.8-0.3-2.7
						c0.1-0.7,0.4-1.3,0.8-1.9c0.4-0.6,1.1-1.3,2-2l0.5-0.4l-0.3-0.5l-0.4-0.6L371.9,443.3L371.9,443.3z"/>
				</g>
			</g>
		</g>
	</g>
	<g>
		<path fill="#414042" d="M77.6,433.9c-40.1-45.1-62.1-103.3-61.7-163.8c0.4-61.9,24-120.9,66.4-165.9l3.6,3.4
			c-41.6,44.2-64.7,101.9-65.1,162.6c-0.4,59.2,21.1,116.2,60.4,160.5L77.6,433.9z"/>
	</g>
	<g>
		<circle fill="#414042" cx="84.1" cy="105.9" r="8.3"/>
	</g>
	<g>
		<circle fill="#414042" cx="82.1" cy="432.8" r="8.3"/>
	</g>
	<g>
		<g>
			<path fill="#414042" d="M440.7,436.1l-3.7-3.3c39.9-43.7,62-100.5,62.4-159.7c0.4-57.5-20-113.1-57.2-156.8l3.8-3.2
				c38,44.5,58.8,101.4,58.4,160C504.1,333.6,481.5,391.5,440.7,436.1z"/>
		</g>
		<g>
			<circle fill="#414042" cx="438.9" cy="435" r="8.3"/>
		</g>
		<g>
			<circle fill="#414042" cx="440.9" cy="110.5" r="8.3"/>
		</g>
	</g>
	
		<text transform="matrix(1 6.149853e-003 -6.149853e-003 1 154.3901 391.6757)" fill="#414042" font-family="'Microsoft-Himalaya'" font-size="42.6199" letter-spacing="12">ESTD 2020</text>
	<polygon fill="#414042" points="415.4,381.5 422.7,381.6 417.1,386.2 419.3,393.1 413.1,389.3 407.2,393.4 409,386.4 403.2,382.1 
		410.4,381.6 412.7,374.8 	"/>
	<polygon fill="#414042" points="133,379.7 140.2,379.8 134.7,384.5 136.8,391.4 130.7,387.5 124.8,391.7 126.6,384.7 120.8,380.4 
		128,379.9 130.3,373 	"/>
	<g>
		<path fill="#414042" d="M207.7,155c-0.4-5.4,1.2-9.7,7-10.8c4.4-0.8,8,0.9,10,5.1c1.3,2.7,1.7,5.7-1.7,7.1c-3,1.2-4.5-1.1-5.7-3.5
			c-0.9-1.9-0.1-5-3.2-5.4c-1.7-0.2-2.8,1.1-3.3,2.6c-1,3.1,0.2,5.7,2.5,7.4c3.3,2.4,6.1,4.2,11.4,3.6c8.8-1.1,18,0,26.9,1.5
			c5,0.8,6.8-1,7.4-4.8c1.1-6.5-1.6-11.9-6.7-16c-1.4-1.1-3.3-2.3-4.7-0.7c-1.6,1.8,0.5,3.1,1.5,4.4c4.7,6.1,4.6,9.3-0.5,10.9
			c-4.5,1.4-7.3-1.1-9-4.9c-2.1-4.7-2.8-9.4,2.3-12.8c1.2-0.8,2.7-1.4,4.2-1.6c7.1-1.2,14.8,5.6,17.3,15.2c1.9,7.3-0.9,13-8.2,15.6
			c-11.4,4.1-38.7,1.9-47.5-13L207.7,155z"/>
		<path fill="#414042" d="M335.6,148.2c1.4,7.7-2.5,12.5-8.9,15.9c-11.2,5.9-23.1,7.4-35.4,4.9c-8.5-1.7-12.6-7.1-11.7-14.2
			c1.3-9.5,9.5-18.1,17.1-17.6c4.5,0.3,7.9,2.6,8.5,7.3c0.6,5.1-1,9.7-6,12c-3.1,1.4-6,0-8-2.6c-2-2.7-0.2-4.7,1.8-6.5
			c1.8-1.7,3.7-3.4,4.2-6.7c-5.5-0.9-8.1,2.5-10.4,6.1c-2.5,4-4.1,8.3-1.9,12.9c0.9,1.9,2.4,3.6,4.6,3.4c11.1-0.8,22.2-2.1,33.5-1.3
			c3.3,0.2,6.5-2.6,8.7-5.6c1.8-2.6,2.2-5.6-0.7-7.3c-3.9-2.3-3.8,1.5-4.6,3.7c-0.8,2.2-1.7,4.3-4.4,4.7c-1.7,0.2-3-0.5-3.6-2.1
			c-0.9-2.6-0.4-5.1,1.4-7.1c3.5-4,8-3.7,12.7-2.9C333.6,146.2,334.6,147.2,335.6,148.2z"/>
		<path fill="#414042" d="M260.8,130c1.3-7.2,4.7-13.4,8.5-19.4c2-3.1,3.6-1.1,5.1,0.9c9.2,12.4,9.1,25.8-0.4,37.5
			c-1.4,1.7-2.9,3.5-4.7,0.8C265.3,143.8,261.9,137.4,260.8,130z"/>
		<path fill="#414042" d="M207.6,154.9c-0.5,2.2-0.6,4.6-1.6,6.6c-1.9,4.2-5.3,6.1-9.9,4.8c-4.6-1.4-7-4.8-7-9.6
			c0-2.2,1.2-3.9,3.3-4.7c2.3-0.9,3.7,0.4,5,2.2c1.2,1.7,0.5,5.1,3.8,4.8c1.4-0.1,1.5-1.9,1.3-3.1c-0.3-3.3-1.5-6-5-6.7
			c-3.5-0.8-6.3,1.1-9,3.1c-5.5,4-10.9,8.2-16.6,11.9c-3.5,2.2-7.5,2.2-9.9-1.9c-2.6-4.5-0.4-7.5,3.7-9.6c0.5,0.8,1.1,1.3,1,1.5
			c-1.2,2.4-4.9,5.2-0.3,7.3c3.4,1.5,6.4-0.5,8-3.9c3.4-7.2,8.9-10.3,16.9-11.6c8.8-1.5,13.5,1.6,16.5,9.1
			C207.7,155,207.6,154.9,207.6,154.9z"/>
		<path fill="#414042" d="M376.3,153.4c5.3,2.5,7.8,5.3,5.3,9.9c-2.3,4.2-6.3,4.3-9.9,2c-6.3-4.2-12.2-9-18.5-13.3
			c-6.1-4.1-12.1-1.9-12.5,4.5c-0.1,1.5-0.2,3.3,1.7,3.8c1.5,0.4,2.1-1.1,2.6-2.2c1.1-2.5,1.5-5.7,5.4-5.3c2,0.2,3.2,1.6,3.7,3.4
			c1,3.6-0.2,6.5-2.8,8.9c-2.9,2.6-6.3,3.3-9.8,1.5c-4.2-2.2-5.2-6.1-4.6-10.4c0.7-4.8,3-8.7,8.2-9.8c9-2,19.3,2.7,23.8,10.9
			c0.2,0.4,0.3,1,0.5,1.4c1.8,3.1,4.5,5.6,8,3.7C381.7,160,377,157.3,376.3,153.4z"/>
		<path fill="#414042" d="M335.6,148.2c-1-1-2-2-3-3.1c-2.1-1.4-4.1-2.8-6.2-4.2c-1.6-1.1-2.7-2.5-1.7-4.5c1.2-2.3,3.2-2,5.2-1.1
			c0.5,0.2,1.1,0.4,1.3,0.7c4.6,9.4,9.3,5.3,14.1,0.2c1-1,2.6-1.5,4-2c3.4-1.3,6.8-2.2,10,0.4c1.3,1,2,2.5,1.1,4
			c-1.9,3.3-5.5,3.6-8.6,3.7C345.7,142.5,341,146.1,335.6,148.2z"/>
	</g>
</g>
</svg>
