<?xml version="1.0" encoding="UTF-8" standalone="no"?>
<!-- Generator: Adobe Illustrator 18.1.1, SVG Export Plug-In . SVG Version: 6.00 Build 0)  -->

<svg
   version="1.1"
   id="Layer_1"
   x="0px"
   y="0px"
   viewBox="0 0 497 182.80002"
   enable-background="new 0 0 518 541.8"
   xml:space="preserve"
   sodipodi:docname="logo_svg-02.svg"
   width="497"
   height="182.8"
   inkscape:export-filename="soup.svg"
   inkscape:export-xdpi="96"
   inkscape:export-ydpi="96"
   xmlns:inkscape="http://www.inkscape.org/namespaces/inkscape"
   xmlns:sodipodi="http://sodipodi.sourceforge.net/DTD/sodipodi-0.dtd"
   xmlns="http://www.w3.org/2000/svg"
   xmlns:svg="http://www.w3.org/2000/svg"><defs
   id="defs939" /><sodipodi:namedview
   id="namedview937"
   pagecolor="#505050"
   bordercolor="#eeeeee"
   borderopacity="1"
   inkscape:showpageshadow="0"
   inkscape:pageopacity="0"
   inkscape:pagecheckerboard="0"
   inkscape:deskcolor="#505050"
   showgrid="false" />
<g
   id="g934">
	<g
   id="g786"
   transform="translate(-16.259375,-164.09559)">
		<g
   id="g708">
			<path
   fill="#414042"
   stroke="#000000"
   stroke-width="0.6176"
   stroke-miterlimit="10"
   d="m 211.9,224.9 c -1.4,-0.1 -3.2,-0.1 -5.3,0.1 0.1,0.3 0.1,0.6 0.2,1 2.1,-0.4 3.8,-0.6 5.2,-0.8 -0.1,-0.1 -0.1,-0.2 -0.1,-0.3 z"
   id="path700" />
			<path
   fill="#414042"
   stroke="#000000"
   stroke-width="0.6176"
   stroke-miterlimit="10"
   d="m 227.3,226.8 v 0 c -0.4,-0.1 -0.8,-0.2 -1.1,-0.2 -0.4,-0.1 -0.8,-0.2 -1.2,-0.3 0,-0.2 0,-0.3 0,-0.5 0.4,0.1 0.9,0.1 1.4,0.2 0.3,0 0.6,0.1 0.9,0.1 -0.1,0.2 0,0.4 0,0.7 z"
   id="path702" />
			<path
   fill="#414042"
   stroke="#000000"
   stroke-width="0.6176"
   stroke-miterlimit="10"
   d="m 259.3,241.6 -5.5,4.6 c -1.1,-1.8 -2.3,-3.5 -3.6,-5 -3.3,-3.9 -6.9,-6.7 -10.3,-8.9 -0.1,-1.2 -0.3,-2.4 -0.4,-3.5 1.9,0.6 4,1.3 6.1,2.3 2.6,1.2 5.3,2.7 8.1,4.9 1.8,1.5 3.8,3.3 5.6,5.6 z"
   id="path704" />
			<path
   fill="#414042"
   stroke="#000000"
   stroke-width="0.6176"
   stroke-miterlimit="10"
   d="m 268,267.7 c 0,2 -0.2,3.4 -0.4,5.1 -0.2,1.6 -0.5,3.2 -0.9,4.8 -1.5,6.2 -4.2,11.7 -7.2,16.2 -6.2,9.2 -13.9,15.7 -22.2,19.8 -4.1,2.1 -8.5,3.5 -12.8,4.5 -2.2,0.4 -4.4,0.7 -6.6,0.9 -1.1,0.1 -2.2,0.2 -3.3,0.2 h -1 -0.7 -1.4 L 208,319 c -1.1,-0.1 -2.2,-0.2 -3.3,-0.4 -2.2,-0.4 -4.4,-0.9 -6.5,-1.5 -2.2,-0.6 -4.3,-1.4 -6.4,-2.4 -2.1,-0.9 -4.2,-2 -6.2,-3.2 -4.1,-2.5 -8,-5.5 -11.6,-9.3 -3.6,-3.7 -6.9,-8.2 -9.6,-13.4 -2.7,-5.3 -4.6,-11.7 -5,-18.3 -0.1,-1.7 -0.1,-3.3 0,-4.9 v -0.1 c 0,-0.5 0,-0.6 0,-0.6 v -0.2 l 0.1,-0.4 0.1,-0.8 0.4,-2.5 c 0.6,-3.4 1.5,-5.9 2.5,-8.5 4.3,-9.7 10.3,-14.8 15.8,-18.4 5.5,-3.5 10.7,-5.7 15.4,-6.9 0.5,-0.1 0.9,-0.2 1.4,-0.3 0,0.3 0.1,0.6 0.1,0.8 l 0.1,1 c 0,0.3 0.1,0.7 0.1,1 -4.5,2.1 -9.4,5.2 -14.3,9.7 -4.4,4.2 -8.9,9.9 -11.3,17.2 -1.2,3.7 -1.7,7.7 -1.1,11.8 0.5,4 2,7.9 4.1,11.2 4.3,6.7 10.6,11.4 17.4,14.4 6.8,3 14.1,4.5 21.4,4.6 7.4,0.1 14.7,-0.9 21.6,-3.5 6.9,-2.6 13.4,-6.7 18.4,-12.6 2.5,-2.9 4.5,-6.4 5.8,-10.2 0.6,-1.9 1,-3.9 1.2,-5.8 0.2,-2 0.2,-4 0,-6 -0.1,-1.3 -0.3,-2.5 -0.6,-3.8 2.6,-1.2 5.1,-2.4 7.7,-3.5 0.6,1.7 1.1,3.6 1.5,5.5 0.5,2.9 0.8,5.9 0.8,9 z"
   id="path706" />
		</g>
		<path
   fill="#414042"
   d="m 181.5,314.4 c 0,0 1,0.5 2.6,1.3 1.7,0.8 4.1,1.8 7.1,2.8 1.5,0.5 3.1,1 4.8,1.4 1.7,0.4 3.5,0.8 5.4,1.1 1.9,0.3 3.8,0.6 5.8,0.8 1,0.1 2,0.1 3,0.2 1,0 2,0 3,0 2.1,0 4.1,-0.1 6.1,-0.3 2,-0.2 4,-0.4 5.8,-0.8 1.9,-0.3 3.7,-0.7 5.4,-1.2 1.7,-0.4 3.3,-0.9 4.8,-1.4 3,-1 5.4,-2 7.1,-2.8 1.7,-0.8 2.6,-1.3 2.6,-1.3 0,0 -0.9,0.6 -2.5,1.6 -1.6,1 -4,2.3 -7,3.5 -1.5,0.6 -3.1,1.2 -4.8,1.8 -1.7,0.5 -3.6,1.1 -5.5,1.5 -1.9,0.4 -3.9,0.8 -5.9,1 -2,0.2 -4.1,0.3 -6.1,0.4 -1.1,0 -2.1,-0.1 -3.1,-0.1 -1,-0.1 -2.1,-0.2 -3.1,-0.2 -2,-0.2 -4,-0.5 -5.9,-0.9 -1.9,-0.4 -3.7,-0.9 -5.5,-1.5 -1.7,-0.5 -3.3,-1.2 -4.8,-1.8 -2.9,-1.2 -5.3,-2.6 -6.9,-3.5 -1.5,-1 -2.4,-1.6 -2.4,-1.6 z"
   id="path710" />
		<g
   id="g714">
			<path
   fill="#414042"
   stroke="#000000"
   stroke-width="0.6176"
   stroke-miterlimit="10"
   d="m 274.6,240.5 c 0,2.6 -1.3,5.2 -3.3,7 -1.8,1.6 -3.8,2.4 -6,3.3 l -0.4,0.2 v 0 c -2.5,1 -5,2.1 -7.4,3.3 -6.6,3.1 -13,6.8 -19.2,11 l -1.8,1 -0.9,-1.7 19.5,-16.2 5.8,-4.8 7.8,-6.5 c 0.9,-0.7 1.9,-1.6 2.8,-1.6 0.6,0 1.1,0.3 1.5,0.6 0.9,0.9 1.6,2.7 1.6,4.4 z"
   id="path712" />
		</g>
		<path
   fill="#414042"
   stroke="#000000"
   stroke-width="0.6176"
   stroke-miterlimit="10"
   d="m 228.9,267 c 0,0 0.3,0.3 0.7,0.8 0.4,0.5 1.1,1.2 2,1.9 0.9,0.7 1.9,1.3 3.1,1.8 1.2,0.4 2.5,0.7 3.8,0.6 1.3,-0.1 2.6,-0.4 3.8,-1 1.2,-0.6 2.2,-1.3 3.1,-2 0.8,-0.8 1.5,-1.5 1.9,-2 0.4,-0.6 0.7,-0.9 0.7,-0.9 0,0 -0.2,0.4 -0.5,1.1 -0.4,0.7 -0.9,1.6 -1.7,2.5 -0.8,0.9 -1.9,1.9 -3.1,2.6 -1.2,0.7 -2.7,1.1 -4.1,1.2 -1.5,0 -2.9,-0.3 -4.2,-0.9 -1.3,-0.6 -2.4,-1.4 -3.2,-2.3 -0.8,-0.9 -1.4,-1.7 -1.8,-2.4 -0.3,-0.6 -0.5,-1 -0.5,-1 z"
   id="path716" />
		<g
   id="g720">
			<path
   fill="#414042"
   stroke="#000000"
   stroke-width="0.6176"
   stroke-miterlimit="10"
   d="m 80,299 c 2.6,2.9 7.2,5.2 13.7,6.9 6.5,1.7 13.1,2.5 19.8,2.4 6.7,-0.1 11.9,-1.1 15.4,-3.1 4,-1.7 6.6,-4.6 7.7,-8.8 0.3,-3.8 -2.5,-7.4 -8.5,-10.7 -2.3,-1.2 -5.5,-2.6 -9.7,-4.4 -4.2,-1.7 -8.2,-3.2 -12.1,-4.6 -3.8,-1.3 -7.9,-3.1 -12.1,-5.2 -4.3,-2.1 -7.9,-4.3 -11,-6.6 -3.1,-2.2 -5.6,-5 -7.7,-8.3 -2,-3.3 -3,-6.8 -3,-10.7 0,-3.5 1,-6.6 2.9,-9.3 1.9,-2.6 4.2,-4.7 6.9,-6.1 2.7,-1.4 6,-2.6 9.8,-3.5 3.8,-0.9 7.2,-1.5 10.3,-1.7 3.1,-0.3 6.3,-0.4 9.6,-0.4 2.1,0 4.2,0.1 6.2,0.3 2,0.2 4.2,0.5 6.6,1 2.4,0.5 4.5,1.1 6.5,1.7 2,0.7 3.9,1.6 5.9,2.7 1.9,1.1 3.5,2.4 4.8,3.8 1.3,1.4 2.3,3.1 3,5.1 0.7,2 1,4.2 0.9,6.7 -0.1,2.1 -0.8,3.9 -1.9,5.4 -1.2,1.5 -2.6,2.4 -4.3,2.8 -1.7,0.4 -3.3,0.3 -5,0 -1.6,-0.4 -3,-1.3 -4.1,-2.8 -1.1,-1.5 -1.6,-3.3 -1.5,-5.5 0.3,-7.9 -5.4,-11.9 -17.1,-11.8 -1.1,0 -2.3,0 -3.5,0.1 -1.2,0.1 -2.7,0.3 -4.4,0.5 -1.7,0.3 -3.2,0.6 -4.5,1.1 -1.3,0.4 -2.5,1.1 -3.6,2 -1.1,0.9 -1.7,1.8 -1.9,2.9 -0.4,1.5 0,3 1.1,4.5 1.1,1.6 2.5,2.9 4.2,4.1 1.7,1.2 3.7,2.4 6,3.5 2.3,1.2 4.3,2.1 5.9,2.7 1.6,0.6 3,1.2 4.3,1.7 4.6,1.7 8.3,3 10.9,4 2.6,1 6.1,2.6 10.3,4.8 4.2,2.2 7.5,4.4 9.7,6.7 2.3,2.2 4.3,5.2 6.1,8.8 1.8,3.6 2.7,7.5 2.7,11.7 0,3.5 -0.7,6.7 -2,9.5 -1.3,2.8 -3.2,5 -5.6,6.8 -2.4,1.8 -5,3.2 -7.8,4.5 -2.8,1.2 -5.9,2.1 -9.4,2.7 -3.5,0.6 -6.7,1 -9.6,1.2 -2.9,0.2 -6,0.3 -9.1,0.3 -3.5,0 -7.1,-0.3 -10.7,-0.7 -3.6,-0.5 -7.4,-1.3 -11.5,-2.5 -4,-1.2 -7.6,-2.7 -10.7,-4.5 -3.1,-1.8 -5.6,-4.2 -7.7,-7.3 -2,-3.1 -3,-6.6 -3,-10.4 0.2,-2.7 0.9,-5.3 2.1,-7.7 1.2,-2.4 2.8,-4.5 4.7,-6.3 2,-1.8 4.2,-3.3 6.8,-4.3 5.8,-2.3 10.4,-1.6 13.6,2.1 2.4,2.8 3.1,6 1.9,9.4 -1.5,4.2 -5.1,6.1 -11,5.8 -0.4,0 -0.7,0 -1.1,-0.1 -2.8,-0.2 -4.8,0.4 -6.1,1.7 -1.5,1.3 -1.1,3.1 0.9,5.4 z"
   id="path718" />
		</g>
		<g
   id="g726">
			<path
   fill="#414042"
   stroke="#000000"
   stroke-width="0.6176"
   stroke-miterlimit="10"
   d="m 361.7,293.7 c -0.1,7.5 -2.9,13.8 -8.2,19.1 -5.3,5.3 -11.7,7.9 -19.3,7.9 l -19,-0.1 c -7.6,0 -14,-2.7 -19.2,-8.1 -5.2,-5.4 -7.9,-11.8 -7.9,-19.2 l 0.3,-45.9 c 0,-1.6 -0.3,-3 -1,-4.1 -0.7,-1.1 -1.4,-1.9 -2.3,-2.5 -0.9,-0.6 -1.7,-1.3 -2.4,-2.3 -0.7,-1 -1.1,-2.2 -1.1,-3.6 0,-1.2 0.4,-2.2 1.2,-3.2 0.8,-1 1.9,-1.7 3.2,-2.4 1.4,-0.6 2.9,-1.1 4.7,-1.5 1.7,-0.4 3.6,-0.6 5.5,-0.7 2,-0.1 3.9,-0.1 5.9,0 2,0.1 3.8,0.4 5.5,0.8 1.7,0.4 3.3,1 4.6,1.6 1.4,0.6 2.4,1.4 3.2,2.4 0.8,1 1.1,2 1.1,3.2 0,1.4 -0.4,2.5 -1.1,3.5 -0.7,1 -1.5,1.8 -2.4,2.3 -0.9,0.5 -1.6,1.4 -2.3,2.4 -0.7,1.1 -1,2.5 -1,4.1 l -0.3,48.2 c 0,3.2 0.7,6 2.2,8.4 1.5,2.4 3.4,4.2 5.7,5.3 2.3,1.1 4.8,1.7 7.5,1.7 2.7,0 5.2,-0.5 7.5,-1.6 2.3,-1.1 4.2,-2.8 5.8,-5.2 1.5,-2.4 2.3,-5.2 2.3,-8.4 l 0.3,-48.2 c 0,-1.6 -0.3,-3 -1,-4.1 -0.7,-1.1 -1.4,-1.9 -2.3,-2.5 -0.9,-0.6 -1.7,-1.3 -2.4,-2.3 -0.7,-1 -1.1,-2.2 -1.1,-3.6 0,-1.2 0.4,-2.2 1.2,-3.2 0.8,-1 1.9,-1.7 3.2,-2.4 1.4,-0.6 2.9,-1.1 4.7,-1.5 1.7,-0.4 3.6,-0.6 5.5,-0.7 2,-0.1 3.9,-0.1 5.9,0 2,0.1 3.8,0.4 5.5,0.8 1.7,0.4 3.3,1 4.6,1.6 1.4,0.6 2.4,1.4 3.2,2.4 0.8,1 1.1,2 1.1,3.2 0,1.4 -0.4,2.5 -1.1,3.5 -0.7,1 -1.5,1.8 -2.4,2.3 -0.9,0.5 -1.6,1.4 -2.3,2.4 -0.7,1.1 -1,2.5 -1,4.1 z"
   id="path722" />
			<path
   fill="#414042"
   stroke="#000000"
   stroke-width="0.6176"
   stroke-miterlimit="10"
   d="m 402.4,248.1 -0.3,52.7 c 0,1.5 0.3,2.9 1,4 0.7,1.1 1.4,2 2.3,2.5 0.9,0.5 1.7,1.3 2.4,2.3 0.7,1 1.1,2.2 1.1,3.7 0,2 -1.2,3.7 -3.6,5 -2.4,1.3 -5.3,2.2 -8.8,2.5 -3.5,0.3 -6.9,0.3 -10.3,-0.1 -3.4,-0.3 -6.3,-1.2 -8.7,-2.6 -2.4,-1.4 -3.6,-3.1 -3.6,-5.1 0,-1 0.2,-1.9 0.6,-2.7 0.4,-0.8 0.8,-1.4 1.3,-1.8 0.5,-0.5 1.1,-0.9 1.6,-1.4 0.6,-0.5 1.1,-1 1.6,-1.5 0.5,-0.5 0.9,-1.2 1.2,-2 0.3,-0.9 0.5,-1.8 0.5,-2.9 L 381,248 c 0,-1.6 -0.3,-3 -1,-4.1 -0.7,-1.1 -1.4,-1.9 -2.3,-2.5 -0.9,-0.6 -1.7,-1.3 -2.4,-2.3 -0.7,-1 -1.1,-2.2 -1.1,-3.6 0,-2.5 1.6,-4.4 4.9,-5.8 3.2,-1.4 7.1,-2.1 11.7,-2.1 l 39.3,0.2 c 3.7,0 7.3,0.5 10.6,1.4 3.3,0.9 6.2,2 8.6,3.5 2.4,1.4 4.6,3.1 6.3,5.2 1.8,2 3.1,4.1 4.1,6.4 0.9,2.2 1.5,4.6 1.6,7.1 0.1,2.5 -0.2,5 -0.9,7.4 -0.7,2.4 -1.9,4.8 -3.5,7.1 -1.6,2.3 -3.6,4.5 -6.1,6.4 -3.1,2.3 -8.8,5 -17.1,8.1 -8.3,3 -15,5.1 -20.2,6.2 -1.6,0.4 -3.1,0.3 -4.2,0 -1.2,-0.4 -2,-0.9 -2.4,-1.7 -0.4,-0.8 -0.6,-1.6 -0.5,-2.5 0.1,-0.9 0.5,-1.8 1.2,-2.7 0.7,-0.9 1.7,-1.5 2.9,-1.8 5.7,-1.9 11.3,-4.2 16.6,-7 3.4,-2.1 6.1,-4.4 8.3,-6.8 2.2,-2.5 3.6,-4.9 4.5,-7.3 0.8,-2.4 1,-4.8 0.4,-7.1 -0.6,-2.3 -1.7,-4.4 -3.5,-6.1 -1.8,-1.7 -4.3,-3.1 -7.5,-4.2 -3.3,-1.1 -7.1,-1.6 -11.5,-1.6 -5.2,0 -9.1,0.9 -11.6,2.8 -2.5,1.5 -3.8,4.1 -3.8,7.5 z"
   id="path724" />
		</g>
		<g
   id="g730">
			<path
   fill="#414042"
   stroke="#000000"
   stroke-width="0.6176"
   stroke-miterlimit="10"
   d="m 201.8,205 c -0.3,1.4 -0.3,2.9 -0.2,4.6 0,0.9 0.1,1.7 0.3,2.7 0.1,0.9 0.3,1.8 0.4,2.7 0.5,3.2 1.2,6.6 1.8,10.2 0.1,0.4 0.1,0.9 0.2,1.3 0,0.2 0.1,0.5 0.1,0.7 0.3,2.2 0.9,4.4 0.9,6.6 0,0.6 0.1,1.1 0.1,1.7 v 0.5 l -0.1,1.2 c 0,0.9 -0.3,2.3 -0.4,3.3 -0.7,4.4 -2.4,8.3 -4.5,11.1 -1,1.5 -2.2,2.6 -3.3,3.5 -1.1,0.9 -2.2,1.5 -3.1,1.9 -0.9,0.4 -1.7,0.6 -2.2,0.7 -0.4,0.1 -0.6,0.1 -0.7,0.1 0.1,-0.1 0.3,-0.2 0.6,-0.5 0.4,-0.3 0.9,-0.8 1.6,-1.5 0.6,-0.7 1.3,-1.5 2,-2.5 0.6,-1.1 1.3,-2.3 1.8,-3.6 0.5,-1.4 0.9,-2.9 1.3,-4.6 0.3,-1.7 0.5,-3.4 0.5,-5.3 0,-1 0,-1.7 0,-2.8 v -0.8 -0.6 c 0,-0.5 -0.1,-1 -0.1,-1.5 -0.2,-1.9 -0.4,-3.8 -0.8,-5.7 0,-0.1 0,-0.2 0,-0.3 -0.1,-0.7 -0.2,-1.4 -0.3,-2 -0.5,-3.5 -1,-7.2 -1.1,-10.7 0,-1 0,-2.2 0,-3.2 0.1,-0.9 0.1,-2 0.3,-3 0.2,-2 0.8,-3.9 1.6,-5.6 0.8,-1.7 1.9,-3.1 3.1,-4 1.2,-1 2.4,-1.5 3.4,-1.7 0.6,-0.2 1.1,-0.2 1.6,-0.2 0.3,0 0.6,0 0.8,0 0.5,0.1 0.8,0.2 0.8,0.2 0,0 -0.3,0.1 -0.7,0.2 -0.5,0.1 -1.1,0.5 -1.9,1 -0.7,0.5 -1.4,1.3 -2.1,2.2 -0.7,0.9 -1.4,2.4 -1.7,3.7 z"
   id="path728" />
		</g>
		<g
   id="g736">
			<path
   fill="#414042"
   stroke="#000000"
   stroke-width="0.6176"
   stroke-miterlimit="10"
   d="m 218.8,195.6 c -0.3,1.6 -0.3,3.4 -0.2,5.3 0.1,1 0.2,2 0.3,3.1 0.1,1 0.3,2.1 0.4,3.2 0.7,4.4 1.7,9.2 2.5,14.2 0.2,1.3 0.4,2.7 0.6,4.1 0,0.1 0,0.2 0,0.3 0.1,1.1 0.3,2.2 0.3,3.3 0,0.6 0,1.1 0,1.8 v 0.6 1.6 c 0,1.1 -0.3,2.7 -0.5,3.9 -0.4,2.5 -1.1,4.9 -2,7.1 -0.9,2.2 -2,4.1 -3.2,5.8 -1.2,1.7 -2.6,3 -3.8,4.1 -1.3,1 -2.6,1.7 -3.6,2.2 -1.1,0.5 -1.9,0.7 -2.5,0.8 -0.4,0.1 -0.7,0.2 -0.9,0.2 0.1,-0.1 0.3,-0.3 0.6,-0.6 0.5,-0.3 1.1,-1 1.9,-1.7 0.7,-0.8 1.5,-1.8 2.3,-3 0.7,-1.2 1.5,-2.6 2.1,-4.2 1.2,-3.2 2,-7.2 2.1,-11.4 0,-1.1 0,-1.9 0,-3.2 v -0.9 l -0.1,-0.8 c 0,-0.6 -0.1,-1.1 -0.1,-1.7 -0.1,-1.5 -0.3,-3 -0.6,-4.5 0,0 0,0 0,-0.1 -0.1,-0.8 -0.2,-1.6 -0.4,-2.5 -0.7,-4.8 -1.5,-9.8 -1.6,-14.8 0,-1.2 -0.1,-2.5 0,-3.7 0.1,-1.1 0.1,-2.4 0.3,-3.5 0.3,-2.3 0.9,-4.6 1.9,-6.5 0.9,-2 2.2,-3.5 3.6,-4.6 1.3,-1.1 2.8,-1.7 3.9,-2 0.7,-0.2 1.3,-0.2 1.9,-0.2 0.3,0 0.6,0 0.9,0.1 0.6,0.1 0.9,0.2 0.9,0.2 0,0 -0.3,0.1 -0.9,0.3 -0.5,0.2 -1.3,0.5 -2.1,1.1 -0.8,0.6 -1.7,1.5 -2.4,2.6 -0.8,1 -1.3,2.5 -1.6,4 z"
   id="path732" />
			<path
   fill="#414042"
   stroke="#000000"
   stroke-width="0.6176"
   stroke-miterlimit="10"
   d="m 214.4,225.1 c 0,0 0,0 0,0"
   id="path734" />
		</g>
		<g
   id="g740">
			<path
   fill="#414042"
   stroke="#000000"
   stroke-width="0.6176"
   stroke-miterlimit="10"
   d="m 234,204.2 c -0.3,1.4 -0.3,2.9 -0.2,4.6 0,0.9 0.1,1.7 0.3,2.7 0.1,0.9 0.2,1.8 0.4,2.7 0.6,3.8 1.5,7.9 2.1,12.2 0.1,0.5 0.1,1 0.2,1.5 0.2,0.9 0.3,1.9 0.5,2.8 0.1,0.8 0.2,1.6 0.2,2.3 0,0.6 0.1,1 0.1,1.6 l -0.1,0.9 v 0.9 c 0,0.9 -0.3,2.3 -0.5,3.3 -0.7,4.3 -2.3,8.3 -4.4,11.1 -1,1.5 -2.2,2.6 -3.3,3.5 -1.1,0.9 -2.2,1.5 -3.1,1.9 -0.9,0.4 -1.7,0.6 -2.2,0.7 -0.4,0.1 -0.6,0.1 -0.7,0.1 0.1,-0.1 0.3,-0.2 0.6,-0.5 0.4,-0.3 0.9,-0.8 1.6,-1.5 0.6,-0.7 1.3,-1.5 2,-2.6 0.6,-1.1 1.3,-2.3 1.8,-3.6 0.5,-1.4 0.9,-2.9 1.3,-4.6 0.3,-1.7 0.5,-3.4 0.5,-5.3 0,-1 0,-1.7 0,-2.8 v -0.8 l -0.1,-0.7 c 0,-0.5 -0.1,-1 -0.1,-1.5 -0.2,-1.9 -0.4,-3.9 -0.8,-6 0,0 0,-0.1 0,-0.1 0,-0.3 -0.1,-0.7 -0.1,-1 -0.6,-3.9 -1.2,-7.8 -1.3,-11.7 0,-1 0,-2.1 0,-3.2 0.1,-0.9 0.1,-2 0.3,-3 0.2,-2 0.8,-3.9 1.6,-5.6 0.8,-1.7 1.9,-3.1 3.1,-4 1.2,-1 2.4,-1.4 3.4,-1.7 0.6,-0.2 1.1,-0.2 1.6,-0.2 0.3,0 0.6,0 0.8,0.1 0.5,0.1 0.8,0.2 0.8,0.2 0,0 -0.3,0.1 -0.7,0.2 -0.5,0.2 -1.1,0.5 -1.9,1 -0.7,0.5 -1.4,1.3 -2.1,2.2 -0.9,1.3 -1.4,2.5 -1.6,3.9 z"
   id="path738" />
		</g>
		<g
   id="g744">
			<path
   fill="#414042"
   stroke="#000000"
   stroke-width="0.6176"
   stroke-miterlimit="10"
   d="m 197.7,265.4 c -0.2,0.3 -0.2,0.5 -0.2,0.9 0,0.6 0.3,1.3 0.8,1.7 0.2,0.2 0.7,0.3 1,0.4 0.3,0 0.7,0 1,-0.2 0.6,-0.3 1,-0.8 1.1,-1.2 0,-0.1 0.1,-0.1 0.1,-0.2 v 0.1 c -0.1,0.1 -0.1,0.3 -0.2,0.4 -0.1,0.4 -0.4,0.8 -0.8,1.2 -0.3,0.3 -0.7,0.5 -1.1,0.6 -0.5,0.1 -1,0.1 -1.6,0 -1.1,-0.3 -2.1,-1.5 -2.1,-2.8 0,-0.6 0.2,-1.3 0.6,-1.8 0.4,-0.5 0.9,-0.8 1.5,-1 1.1,-0.3 2.1,0.1 2.7,0.6 0.5,0.5 0.7,0.9 0.8,1.3 0.1,0.1 0.1,0.3 0.1,0.4 v 0.1 c 0,-0.1 0,-0.1 -0.1,-0.2 -0.1,-0.4 -0.4,-0.9 -1.1,-1.2 -0.6,-0.3 -1.4,-0.2 -2,0.2 -0.2,0.2 -0.4,0.4 -0.5,0.7 z"
   id="path742" />
		</g>
		<g
   id="g758">
			<path
   fill="#414042"
   stroke="#000000"
   stroke-width="0.6176"
   stroke-miterlimit="10"
   d="m 219.1,265.5 c 0,0 0,0 0,0 0,0.1 -0.1,0.2 -0.1,0.3 0.1,-0.1 0.1,-0.2 0.1,-0.3 0,0 0,0 0,0 z"
   id="path746" />
			<path
   fill="#414042"
   stroke="#000000"
   stroke-width="0.6176"
   stroke-miterlimit="10"
   d="m 219.1,264.3 c 0,0.1 0,0.1 0,0 0,0 -0.1,-0.1 -0.1,-0.2 0.1,0.1 0.1,0.1 0.1,0.2 0,0 0,0 0,0 z"
   id="path748" />
			<path
   fill="#414042"
   stroke="#000000"
   stroke-width="0.6176"
   stroke-miterlimit="10"
   d="m 219.1,265.5 c 0,0 0,0 0,0 0,0 0,-0.1 0,0 0,-0.1 0.1,-0.1 0,0 z"
   id="path750" />
			<path
   fill="#414042"
   stroke="#000000"
   stroke-width="0.6176"
   stroke-miterlimit="10"
   d="m 219.1,264.5 c 0,-0.1 0,-0.1 0,0 0,-0.1 0,-0.1 0,0 0.1,-0.1 0.1,-0.1 0,0 z"
   id="path752" />
			<path
   fill="#414042"
   stroke="#000000"
   stroke-width="0.6176"
   stroke-miterlimit="10"
   d="m 219.1,264.3 c 0,-0.1 0,-0.1 -0.1,-0.2 0.1,0.1 0.1,0.2 0.1,0.2 0,0.1 0,0.1 0,0.2 0.1,-0.1 0.1,-0.1 0,-0.2 0,0.1 0,0.1 0,0 0,0 0,0 0,0 z m -0.1,1.5 c 0,-0.1 0.1,-0.1 0.1,-0.2 0,0 0,0 0,0 0,0 0,0 0,0 v 0 c 0,0 0,0.1 -0.1,0.2 z"
   id="path754" />
			<path
   fill="#414042"
   stroke="#000000"
   stroke-width="0.6176"
   stroke-miterlimit="10"
   d="m 219,265.8 c 0,-0.1 0.1,-0.1 0.1,-0.2 -0.1,0.5 -0.4,1.4 -1.2,2.2 -0.4,0.3 -0.9,0.6 -1.5,0.7 -0.6,0.1 -1.2,0.1 -2,-0.1 -0.7,-0.2 -1.3,-0.7 -1.8,-1.3 -0.5,-0.6 -0.7,-1.4 -0.7,-2.3 0,-0.7 0.3,-1.6 0.8,-2.2 0.5,-0.6 1.1,-1.1 1.8,-1.3 1.4,-0.4 2.7,0 3.5,0.7 0.9,0.8 1.2,1.6 1.2,2.2 0,-0.1 0,-0.1 -0.1,-0.2 0,0 0,0 0,0 -0.1,-0.2 -0.2,-0.4 -0.3,-0.6 -0.2,-0.4 -0.6,-0.8 -1.1,-1 -0.8,-0.4 -1.9,-0.4 -2.7,0.1 -0.4,0.3 -0.7,0.6 -1,1 -0.2,0.5 -0.4,0.8 -0.3,1.4 0,0.4 0.1,0.9 0.3,1.3 0.2,0.4 0.6,0.8 1,1 0.4,0.3 0.9,0.4 1.4,0.4 0.5,0 1,-0.1 1.4,-0.3 0.6,-0.3 1,-0.8 1.2,-1.2 0,0 0,-0.2 0,-0.3 z"
   id="path756" />
		</g>
		<g
   id="g772">
			<path
   fill="#414042"
   stroke="#000000"
   stroke-width="0.414"
   stroke-miterlimit="10"
   d="m 208.7,262.2 c 0,0 0,0 0,0 0,0.1 0,0.1 -0.1,0.2 0,-0.1 0.1,-0.2 0.1,-0.2 0,-0.1 0,-0.1 0,0 z"
   id="path760" />
			<path
   fill="#414042"
   stroke="#000000"
   stroke-width="0.414"
   stroke-miterlimit="10"
   d="m 208.7,261.4 c 0,0 0,0 0,0 0,0 0,-0.1 -0.1,-0.1 0,0 0.1,0 0.1,0.1 0,0 0,0 0,0 z"
   id="path762" />
			<path
   fill="#414042"
   stroke="#000000"
   stroke-width="0.414"
   stroke-miterlimit="10"
   d="m 208.7,262.1 c 0,0 0,0 0,0 0,0 0,0 0,0 0,0 0,0 0,0 z"
   id="path764" />
			<path
   fill="#414042"
   stroke="#000000"
   stroke-width="0.414"
   stroke-miterlimit="10"
   d="m 208.7,261.5 c 0,-0.1 0,-0.1 0,0 0,-0.1 0,-0.1 0,0 0,-0.1 0,-0.1 0,0 z"
   id="path766" />
			<path
   fill="#414042"
   stroke="#000000"
   stroke-width="0.414"
   stroke-miterlimit="10"
   d="m 208.7,261.3 c 0,0 0,-0.1 0,-0.1 -0.1,0.1 0,0.1 0,0.1 0,0.1 0,0.1 0,0.1 0,0 0,0 0,-0.1 0,0.1 0,0.1 0,0 0,0.1 0,0.1 0,0 z m -0.1,1 c 0,0 0.1,-0.1 0.1,-0.1 0,0 0,0 0,0 0,0 0,0 0,0 v 0 c 0,0 -0.1,0.1 -0.1,0.1 z"
   id="path768" />
			<path
   fill="#414042"
   stroke="#000000"
   stroke-width="0.414"
   stroke-miterlimit="10"
   d="m 208.6,262.3 c 0,0 0.1,-0.1 0.1,-0.1 -0.1,0.4 -0.2,0.9 -0.8,1.5 -0.3,0.2 -0.6,0.4 -1,0.5 -0.4,0.1 -0.8,0.1 -1.3,-0.1 -0.4,-0.1 -0.9,-0.4 -1.2,-0.9 -0.3,-0.4 -0.5,-0.9 -0.5,-1.5 0,-0.4 0.2,-1.1 0.5,-1.5 0.3,-0.4 0.7,-0.7 1.2,-0.9 0.9,-0.3 1.8,0 2.3,0.5 0.6,0.5 0.8,1.1 0.8,1.5 0,0 0,-0.1 0,-0.1 0,0 0,0 0,0 0,-0.1 -0.1,-0.3 -0.2,-0.4 -0.2,-0.3 -0.4,-0.5 -0.7,-0.7 -0.5,-0.3 -1.3,-0.3 -1.8,0.1 -0.3,0.2 -0.5,0.4 -0.6,0.7 -0.1,0.3 -0.2,0.5 -0.2,0.9 0,0.3 0.1,0.6 0.2,0.9 0.1,0.3 0.4,0.5 0.6,0.7 0.2,0.2 0.6,0.3 0.9,0.3 0.3,0 0.6,-0.1 0.9,-0.2 0.4,-0.2 0.7,-0.5 0.8,-0.8 0,-0.2 0,-0.3 0,-0.4 z"
   id="path770" />
		</g>
		<g
   id="g780">
			<path
   fill="#414042"
   stroke="#000000"
   stroke-width="0.6176"
   stroke-miterlimit="10"
   d="m 208.6,272 c 0,0 0,0.1 0,0 0,0 0,0 0,0 0,-0.1 0,-0.1 0,0 z"
   id="path774" />
			<path
   fill="#414042"
   stroke="#000000"
   stroke-width="0.6176"
   stroke-miterlimit="10"
   d="m 208.6,271.8 v 0 c 0,0.1 0,0.2 0,0.2 0,0 0,0 0,-0.1 0,0 0,0 0,-0.1 z"
   id="path776" />
			<path
   fill="#414042"
   stroke="#000000"
   stroke-width="0.6176"
   stroke-miterlimit="10"
   d="m 204.7,271.1 c -0.1,0.3 -0.2,0.6 -0.2,1 0,0.6 0.3,1.3 0.9,1.7 0.2,0.2 0.7,0.3 1,0.4 0.3,0 0.7,0 1,-0.2 0.6,-0.3 1,-0.8 1.1,-1.3 0,-0.1 0.1,-0.1 0.1,-0.2 0,0 0,0 0,0 0,0.1 -0.1,0.3 -0.1,0.4 0,0.1 -0.1,0.2 -0.2,0.3 -0.1,0.3 -0.3,0.7 -0.7,1 -0.3,0.3 -0.7,0.5 -1.2,0.6 -0.5,0.1 -1,0.1 -1.6,0 -0.5,-0.2 -1.1,-0.5 -1.5,-1 -0.4,-0.5 -0.6,-1.2 -0.6,-1.8 0,-0.6 0.2,-1.4 0.6,-1.8 0.4,-0.5 0.9,-0.9 1.5,-1 1.1,-0.3 2.2,0.1 2.7,0.6 0.7,0.7 0.9,1.3 1,1.8 v 0.1 c 0,-0.1 0,-0.1 -0.1,-0.2 -0.1,-0.4 -0.4,-1 -1.1,-1.3 -0.6,-0.3 -1.5,-0.3 -2.1,0.2 -0.2,0.1 -0.4,0.4 -0.5,0.7 z"
   id="path778" />
		</g>
		<g
   id="g784">
			<path
   fill="#414042"
   stroke="#000000"
   stroke-width="0.6176"
   stroke-miterlimit="10"
   d="m 219,272.6 c 0,0.2 -0.1,0.2 0,0.3 0,0.2 0,0.4 0.2,0.7 0.1,0.1 0.3,0.2 0.4,0.3 0.2,0.1 0.4,0.1 0.5,0 0.3,-0.1 0.6,-0.4 0.6,-0.6 0,0 0,-0.1 0.1,-0.1 0,0 0,0 0,0 v 0.1 c -0.1,0.2 -0.2,0.6 -0.5,0.9 -0.1,0.2 -0.4,0.3 -0.7,0.4 -0.3,0.1 -0.6,0.1 -1,0.1 -0.7,-0.1 -1.4,-0.9 -1.4,-1.8 0,-0.4 0.2,-0.9 0.5,-1.2 0.2,-0.3 0.6,-0.5 1,-0.6 0.7,-0.2 1.4,0.2 1.7,0.5 0.3,0.4 0.5,0.8 0.5,1 0,0.2 0,0.3 0,0.3 0,0 0,-0.1 -0.1,-0.3 0,-0.2 -0.3,-0.5 -0.6,-0.6 -0.3,-0.1 -0.8,0 -1,0.3 -0.1,0 -0.1,0.2 -0.2,0.3 z"
   id="path782" />
		</g>
	</g>
	
	
	
	
	
	
	
		
	
	
	
</g>
</svg>
